<?xml version="1.0" encoding="UTF-8"?>
<svg version="1.1" xmlns="http://www.w3.org/2000/svg" width="700" height="592">
<path d="M0 0 C3.60423233 0.00315458 7.20763614 -0.02038195 10.81176758 -0.0456543 C68.91386033 -0.20446275 118.51183871 18.51476467 159.9387207 59.31567383 C192.16371264 91.4394884 209.08944475 137.37266423 210.9387207 182.31567383 C211.01799805 183.74266602 211.01799805 183.74266602 211.09887695 185.19848633 C211.52329284 198.15239719 207.50114344 209.27314799 198.9387207 219.00317383 C189.4041116 227.6492873 177.43324352 230.60922511 165.0637207 232.44067383 C163.54750965 232.68149195 162.03148196 232.92346688 160.515625 233.16650391 C131.82640697 237.68462727 102.8919061 241.0685397 73.9387207 243.31567383 C72.62790527 243.42008789 71.31708984 243.52450195 69.96655273 243.63208008 C25.60855391 247.0682465 -19.71294214 246.67075156 -64.0612793 243.31567383 C-65.30518433 243.22446259 -65.30518433 243.22446259 -66.57421875 243.13140869 C-89.26617385 241.46495821 -111.7884912 238.98581465 -134.3112793 235.75317383 C-135.340495 235.60546539 -136.36971069 235.45775696 -137.43011475 235.30557251 C-182.37488762 228.80022985 -182.37488762 228.80022985 -193.3815918 216.61254883 C-206.18325362 199.10702056 -204.15326899 178.60232555 -201.09643555 158.25317383 C-192.96717688 109.17085735 -165.16224597 64.39606659 -124.78442383 35.25561523 C-87.20954508 8.78131401 -45.31226802 -0.08255829 0 0 Z " fill="#000000" transform="translate(346.061279296875,317.684326171875)"/>
<path d="M0 0 C2.08955734 1.81004408 2.08955734 1.81004408 4.98828125 3.6640625 C4.98828125 4.3240625 4.98828125 4.9840625 4.98828125 5.6640625 C5.56449219 5.91800781 6.14070312 6.17195313 6.734375 6.43359375 C25.93680281 16.91672158 38.5974728 45.98862363 44.64501953 65.81738281 C54.66697237 101.13595742 49.85174287 136.19862808 33.05078125 168.4765625 C14.87031097 200.54290377 -14.54066169 221.6854875 -49.68359375 231.62109375 C-60.34688845 234.32476632 -70.8002197 235.03519303 -81.76171875 234.9765625 C-82.46893066 234.97473969 -83.17614258 234.97291687 -83.90478516 234.97103882 C-94.22621366 234.9262227 -104.00339075 234.49767745 -114.01171875 231.6640625 C-114.66446777 231.48713867 -115.3172168 231.31021484 -115.98974609 231.12792969 C-134.55194848 226.04516063 -152.376041 217.28190684 -167.01171875 204.6640625 C-168.44451172 203.43042969 -168.44451172 203.43042969 -169.90625 202.171875 C-197.11591719 178.24271427 -211.5505837 145.21900197 -214.17578125 109.42724609 C-215.1469985 91.80369976 -212.06643095 74.17856195 -206.01171875 57.6640625 C-205.64304688 56.64441406 -205.274375 55.62476562 -204.89453125 54.57421875 C-191.97913152 21.3950022 -166.19354325 -3.74197901 -134.00830078 -18.23828125 C-90.88028201 -36.87662842 -36.19805431 -30.54020717 0 0 Z " fill="#000000" transform="translate(432.01171875,65.3359375)"/>
</svg>
