<?xml version="1.0" encoding="UTF-8"?>
<svg version="1.1" xmlns="http://www.w3.org/2000/svg" width="700" height="563">
<path d="M0 0 C0.78429988 -0.00436032 1.56859976 -0.00872064 2.37666631 -0.0132131 C5.01476392 -0.0241946 7.65234166 -0.01373394 10.29043579 -0.00342751 C12.1968481 -0.00688292 14.10325842 -0.0116467 16.00966454 -0.01760924 C21.25629594 -0.0301648 26.50276423 -0.02392815 31.74939632 -0.01465058 C37.4045467 -0.00787906 43.05966849 -0.01833189 48.71481323 -0.02659035 C59.79638379 -0.03995017 70.87789349 -0.03703993 81.95946646 -0.02835242 C90.96341038 -0.02158513 99.96733722 -0.02065502 108.97128296 -0.02392387 C110.25137879 -0.02438357 111.53147462 -0.02484327 112.85036123 -0.0253169 C115.45061891 -0.02627605 118.05087658 -0.02724869 120.65113425 -0.02823468 C144.35418769 -0.03655099 168.05720189 -0.02791766 191.76024899 -0.01220688 C213.4046064 0.00203025 235.04891087 0.00075638 256.69326782 -0.01358986 C281.00325098 -0.029649 305.31319666 -0.03597113 329.62318611 -0.02675307 C332.21403121 -0.02579739 334.80487632 -0.02485428 337.39572144 -0.02392387 C338.67056188 -0.02346105 339.94540232 -0.02299822 341.2588743 -0.02252137 C350.25497737 -0.01992799 359.2510617 -0.02430996 368.24716187 -0.03136253 C379.20613349 -0.03976483 390.16504063 -0.03752417 401.12400484 -0.0215203 C406.71848126 -0.01362048 412.31285005 -0.0105751 417.90732574 -0.02046776 C423.02449959 -0.02937974 428.14146562 -0.02453968 433.2586205 -0.0085351 C435.11386193 -0.00517243 436.96912076 -0.0069145 438.82435107 -0.01416247 C441.33882134 -0.02323552 443.85257219 -0.01397901 446.36700439 0 C447.09364768 -0.0070235 447.82029097 -0.014047 448.56895375 -0.02128333 C452.9570697 0.02774595 455.67944636 0.71768998 459.1835022 3.37752342 C463.11083317 7.72943072 463.81761832 11.3021021 463.57022095 16.97517967 C462.8342742 21.54697006 460.64044641 24.27180423 457.02732748 27.01390988 C453.42903482 28.73929035 450.27515445 28.79406603 446.36979771 28.75784016 C445.19379728 28.76483003 445.19379728 28.76483003 443.99403927 28.77196112 C441.35695641 28.78394817 438.72038524 28.7745015 436.08329773 28.76520348 C434.17759764 28.76937477 432.27190004 28.77485116 430.36620706 28.78152329 C425.12151115 28.79602342 419.87697177 28.79171893 414.63226712 28.78435647 C408.97913886 28.7796384 403.32604515 28.79212256 397.67292786 28.80237389 C386.59503621 28.81959384 375.51720121 28.82039529 364.43929965 28.81516098 C355.43774723 28.81112407 346.43621158 28.81255713 337.43465996 28.81790924 C335.5149493 28.81903187 335.5149493 28.81903187 333.55645661 28.82017719 C330.95676466 28.82170862 328.35707272 28.82324697 325.75738078 28.82479215 C308.29550329 28.83462504 290.83363676 28.8387803 273.37175846 28.83116627 C272.68875841 28.83086909 272.00575836 28.83057192 271.30206134 28.83026574 C265.75540194 28.82781673 260.20874261 28.82520518 254.66208329 28.82258161 C233.02441806 28.81247839 211.38683043 28.82083511 189.74917603 28.84407616 C165.44540531 28.87013857 141.1416949 28.88294992 116.83790678 28.87588841 C103.96710421 28.8723906 91.09636538 28.87466523 78.22557259 28.89213943 C67.26917843 28.90682966 56.31289288 28.90753853 45.35650093 28.89006852 C39.76389393 28.88153002 34.17148122 28.87947837 28.57888412 28.89472008 C23.46222253 28.90849235 18.34592303 28.90390058 13.22928279 28.88448084 C11.37536845 28.88069751 9.52142562 28.88370939 7.6675365 28.89409249 C5.15226692 28.90718131 2.63826213 28.89575238 0.12304783 28.87809467 C-0.60096845 28.88774519 -1.32498472 28.8973957 -2.07094088 28.90733865 C-7.10032918 28.83457323 -9.92285843 27.49949745 -13.8164978 24.37752342 C-17.20220247 20.54039146 -17.32940953 16.7435088 -17.1680603 11.81502342 C-16.50443517 7.21388919 -14.28114141 4.48929453 -10.66049767 1.74096239 C-7.06097208 0.01531763 -3.90644486 -0.03775843 0 0 Z " fill="#000000" transform="translate(126.81649780273438,285.6224765777588)"/>
</svg>
