<?xml version="1.0" encoding="UTF-8"?>
<svg version="1.1" xmlns="http://www.w3.org/2000/svg" width="700" height="596">
<path d="M0 0 C4.5853012 1.16216733 6.99030454 3.35702051 10.19640768 6.6441704 C10.80862277 7.24766485 11.42083786 7.8511593 12.05160493 8.47294146 C14.10652407 10.50590304 16.13933699 12.55962798 18.17296445 14.61387217 C19.6537035 16.08770013 21.1357483 17.56021718 22.61898613 19.03153038 C26.69661349 23.08404992 30.75524222 27.15514695 34.81103814 31.2294997 C39.18605917 35.6180652 43.57826946 39.98936772 47.96831357 44.36289561 C56.07051513 52.43992405 64.15892058 60.53056031 72.24032957 68.62838041 C79.70573072 76.10886746 87.17667457 83.58376244 94.65320814 91.05312312 C95.14889398 91.54835065 95.64457983 92.04357819 96.15528645 92.55381261 C98.16737738 94.56403555 100.17948949 96.57423726 102.19163649 98.58440407 C121.07184218 117.44625057 139.93449831 136.32556085 158.78937458 155.21272354 C175.54551725 171.99734044 192.31710257 188.76637802 209.10182798 205.52241099 C227.95411893 224.34258286 246.79668922 243.17239958 265.62365341 262.01791 C267.63021032 264.02639125 269.63679089 266.03484886 271.64338148 268.04329646 C272.13745642 268.53784587 272.63153137 269.03239528 273.14057828 269.54193103 C280.60590714 277.01408834 288.07861883 284.47880806 295.55493391 291.93997157 C304.05474835 300.42264614 312.54348532 308.91620148 321.01872377 317.4234459 C325.34546481 321.76598547 329.67691925 326.10353384 334.02145231 330.42827952 C337.9953523 334.38435296 341.95522758 338.35391476 345.90418716 342.33487968 C347.33818028 343.7755971 348.77729847 345.21123441 350.22188847 346.64132626 C352.17949314 348.58077822 354.11783194 350.53764063 356.05233419 352.50009692 C356.90692577 353.333618 356.90692577 353.333618 357.77878183 354.1839779 C361.41801971 357.92964798 362.66594758 360.7219146 362.74684751 365.94965708 C361.24684751 368.44965708 361.24684751 368.44965708 358.74684751 369.94965708 C352.53610347 369.85354509 349.46355333 367.52672837 345.29728734 363.25514376 C344.68507225 362.65164931 344.07285716 362.04815487 343.44209009 361.42637271 C341.38717095 359.39341113 339.35435803 357.33968619 337.32073057 355.28544199 C335.83999152 353.81161404 334.35794672 352.33909698 332.87470889 350.86778378 C328.79708153 346.81526424 324.7384528 342.74416721 320.68265688 338.66981447 C316.30763585 334.28124897 311.91542557 329.90994645 307.52538145 325.53641856 C299.42317989 317.45939011 291.33477444 309.36875386 283.25336545 301.27093375 C275.7879643 293.7904467 268.31702045 286.31555173 260.84048688 278.84619105 C260.34480104 278.35096351 259.84911519 277.85573598 259.33840857 277.34550155 C257.32631764 275.33527862 255.31420553 273.3250769 253.30205853 271.3149101 C234.42185284 252.45306359 215.55919671 233.57375332 196.70432044 214.68659063 C179.94817777 197.90197373 163.17659245 181.13293615 146.39186704 164.37690318 C127.53957609 145.55673131 108.6970058 126.72691459 89.87004161 107.88140416 C87.8634847 105.87292291 85.85690413 103.86446531 83.85031354 101.85601771 C83.3562386 101.3614683 82.86216365 100.86691889 82.35311674 100.35738313 C74.88778788 92.88522583 67.41507619 85.4205061 59.93876112 77.9593426 C51.43894667 69.47666803 42.9502097 60.98311269 34.47497125 52.47586827 C30.14823021 48.13332869 25.81677577 43.79578032 21.47224271 39.47103465 C17.49834272 35.51496121 13.53846744 31.54539941 9.58950786 27.56443448 C8.15551474 26.12371706 6.71639655 24.68807976 5.27180655 23.2579879 C3.31420188 21.31853594 1.37586308 19.36167354 -0.55863917 17.39921725 C-1.41323075 16.56569616 -1.41323075 16.56569616 -2.28508681 15.71533626 C-5.92432469 11.96966618 -7.17225256 9.17739956 -7.25315249 3.94965708 C-5.15136294 0.44667449 -4.0926697 -0.06333455 0 0 Z " fill="#000000" transform="translate(172.25315248966217,115.05034291744232)"/>
</svg>
