<?xml version="1.0" encoding="UTF-8"?>
<svg version="1.1" xmlns="http://www.w3.org/2000/svg" width="700" height="594">
<path d="M0 0 C0.81791016 0.40154297 1.63582031 0.80308594 2.47851562 1.21679688 C19.66609937 9.70212961 35.41313692 19.81695107 50.40820312 31.73925781 C52.0811281 33.06425544 53.76570602 34.37320759 55.453125 35.6796875 C62.9319831 41.48395866 70.22022773 47.47520124 77.40087891 53.64355469 C78.91999079 54.93213264 80.46525663 56.18968956 82.01171875 57.4453125 C90.60468971 64.47409106 98.4533614 72.23667975 106.3125 80.0625 C106.8723056 80.61712921 107.43211121 81.17175842 108.00888062 81.74319458 C115.15303877 88.83525815 121.77841649 96.07298307 128 104 C128.91589535 105.13083348 129.83242597 106.2611532 130.75 107.390625 C144.98440718 125.48018412 155.1524073 145.71939131 161 168 C161.17934082 168.67450195 161.35868164 169.34900391 161.54345703 170.04394531 C167.18408264 192.57283924 165.77373013 219.6872134 160 242 C159.78569336 242.8465918 159.57138672 243.69318359 159.35058594 244.56542969 C156.13611861 256.94136286 151.60472201 268.52256008 146 280 C145.48397217 281.06879395 145.48397217 281.06879395 144.95751953 282.15917969 C136.02517328 300.45695564 123.8504159 316.6176949 110.15625 331.625 C108.2143852 333.76386558 106.32022404 335.93419385 104.4375 338.125 C98.45448866 344.97651298 91.89991209 351.09066935 85 357 C83.98113501 357.89380698 82.96295982 358.78840063 81.9453125 359.68359375 C60.42736041 378.51414277 36.50115814 394.3382179 12 409 C10.75065674 409.75144287 10.75065674 409.75144287 9.47607422 410.51806641 C-23.72109159 430.36665378 -60.1544285 446.8107717 -99 451 C-99.94101562 451.10957031 -100.88203125 451.21914063 -101.8515625 451.33203125 C-126.0178962 453.67373025 -149.89488759 451.6217508 -173.5802002 446.72039795 C-184.43076233 444.48799687 -195.23074702 443.09269068 -206.25 442 C-263.00928217 436.26039023 -316.76454483 412.83939039 -353.97265625 368.52734375 C-356.76225401 365.10035872 -359.40600837 361.57654916 -362 358 C-362.41169434 357.43796875 -362.82338867 356.8759375 -363.24755859 356.296875 C-394.46801456 313.16936989 -407.43664509 258.11563769 -399.0390625 205.58203125 C-388.9865622 149.11415927 -357.93232243 89.95220914 -312.2734375 53.84375 C-309.92871991 52.20160099 -309.92871991 52.20160099 -309 50 C-309.7425 49.773125 -310.485 49.54625 -311.25 49.3125 C-314.64323721 47.69300042 -316.08905016 46.23391511 -318 43 C-317.85940631 39.3043945 -317.37796252 37.46311613 -315.0234375 34.578125 C-289.83436577 12.43551917 -259.60568446 0.31251638 -227.46240234 -7.92407227 C-218.85111179 -10.15410296 -210.46375232 -12.77040691 -202.0625 -15.6875 C-190.18298951 -19.76281412 -178.38014997 -22.87968973 -166 -25 C-165.06140137 -25.16226074 -164.12280273 -25.32452148 -163.15576172 -25.49169922 C-108.59152946 -34.46078167 -49.37130255 -24.70807239 0 0 Z M-162 2 C-162.83772949 2.10151367 -163.67545898 2.20302734 -164.53857422 2.30761719 C-211.29298462 8.04003576 -257.9667667 39.01601931 -292 70 C-293.11181641 70.98613281 -293.11181641 70.98613281 -294.24609375 71.9921875 C-313.12502247 89.65438692 -326.92637774 114.93272394 -337.91796875 137.984375 C-338.34231201 138.87350586 -338.76665527 139.76263672 -339.20385742 140.67871094 C-340.30032454 143.11052435 -340.30032454 143.11052435 -339 146 C-338.54113403 145.24662354 -338.54113403 145.24662354 -338.07299805 144.47802734 C-329.43445623 130.36621094 -320.25178897 117.40609579 -309.0390625 105.22265625 C-307.18749705 103.20437897 -305.40167 101.14650865 -303.625 99.0625 C-296.63442004 91.07326576 -289.09868082 83.84145766 -280.79296875 77.234375 C-277.93157661 74.94526129 -275.15759843 72.57149975 -272.375 70.1875 C-221.88088694 28.19560906 -156.05030729 4.75462846 -91 0 C-91 -0.33 -91 -0.66 -91 -1 C-114.88615164 -1.34589333 -138.28188903 -1.18618847 -162 2 Z M-28 19 C-30.98659327 19.99553109 -32.57943889 20.05393096 -35.6640625 19.87890625 C-36.60838135 19.83032471 -37.5527002 19.78174316 -38.52563477 19.73168945 C-39.54842529 19.67585693 -40.57121582 19.62002441 -41.625 19.5625 C-116.73213428 16.03732954 -190.8006447 34.9603626 -250.21923828 82.57324219 C-251.78076059 83.82434396 -253.35610229 85.05815704 -254.93359375 86.2890625 C-288.83827038 113.19113875 -318.38010907 150.29623071 -329.75 192.625 C-329.94883789 193.36411621 -330.14767578 194.10323242 -330.35253906 194.86474609 C-333.31132453 206.48927115 -334.39229129 217.95839177 -334.375 229.9375 C-334.37412384 230.61053162 -334.37324768 231.28356323 -334.37234497 231.97698975 C-334.17964978 277.19034901 -313.41199573 318.00278292 -281.85498047 349.58422852 C-269.80381223 361.29201027 -255.89987902 370.34337177 -241 378 C-240.01362549 378.51554443 -240.01362549 378.51554443 -239.00732422 379.04150391 C-188.46664998 405.18915547 -128.06037926 405.41312515 -74.58789062 388.93432617 C-39.70179041 377.63938334 -8.40098739 358.30660199 18 333 C18.52980469 332.49742676 19.05960937 331.99485352 19.60546875 331.47705078 C27.89849007 323.57553493 35.2858669 315.28338911 42 306 C42.71687988 305.0090332 42.71687988 305.0090332 43.44824219 303.99804688 C75.01363446 259.76072059 88.66441638 205.46431033 80.04296875 151.53125 C77.30677733 136.26302964 73.08426994 121.27366116 67 107 C66.71431152 106.32308105 66.42862305 105.64616211 66.13427734 104.94873047 C57.70882023 85.28933053 45.544172 68.59737067 31 53 C29.97132813 51.89011719 29.97132813 51.89011719 28.921875 50.7578125 C19.79256204 41.25656457 9.33494395 33.66366638 -1.75 26.625 C-2.51747559 26.13733154 -3.28495117 25.64966309 -4.07568359 25.1472168 C-15.79864262 16.66627849 -15.79864262 16.66627849 -28 19 Z M-341 146 C-340 148 -340 148 -340 148 Z M-342 148 C-341 150 -341 150 -341 150 Z M108 165 C108.01571045 165.86351074 108.0314209 166.72702148 108.04760742 167.61669922 C108.73893063 211.68053229 103.06647015 256.74010348 79.14453125 294.96484375 C78.76683594 295.63644531 78.38914062 296.30804688 78 297 C78.33 297.66 78.66 298.32 79 299 C105.44207161 264.15250165 116.85695556 220.66543668 111.36865234 177.43945312 C110.73725503 173.26135914 109.88614237 169.13059332 109 165 C108.67 165 108.34 165 108 165 Z M-351 288 C-350 290 -350 290 -350 290 Z M-350 291 C-349 293 -349 293 -349 293 Z M-349 293 C-348 296 -348 296 -348 296 Z M-348 296 C-343.40787994 325.96358336 -315.27809488 354.87717059 -292 372 C-291.34 371.67 -290.68 371.34 -290 371 C-292.06057175 369.08122455 -294.12337063 367.16494202 -296.1875 365.25 C-296.76564453 364.71117187 -297.34378906 364.17234375 -297.93945312 363.6171875 C-300.48359607 361.25990251 -303.02234557 358.98215547 -305.734375 356.81640625 C-309.31617536 353.94479045 -312.07183895 350.52127396 -315 347 C-315.65645508 346.22003662 -315.65645508 346.22003662 -316.32617188 345.42431641 C-326.76780735 332.96731778 -335.4048261 319.91280867 -342.40136719 305.22680664 C-344.00122093 301.87856592 -345.63233991 298.86725809 -348 296 Z M77 299 C77 302 77 302 77 302 Z M75 302 C76 304 76 304 76 304 Z M-289 373 C-288.67 373.66 -288.34 374.32 -288 375 C-287.34 374.67 -286.68 374.34 -286 374 C-286.99 373.67 -287.98 373.34 -289 373 Z M-235 404 C-232.08163941 406.36556025 -229.28770897 407.86692683 -225.80859375 409.26953125 C-224.7913623 409.68090332 -223.77413086 410.09227539 -222.72607422 410.51611328 C-217.16258518 412.7092927 -211.58672916 414.86679188 -206 417 C-205.1219873 417.34627441 -204.24397461 417.69254883 -203.33935547 418.04931641 C-183.03206647 425.97521792 -162.24967018 423.23399301 -141 421 C-141 420.67 -141 420.34 -141 420 C-141.63687744 419.98541748 -142.27375488 419.97083496 -142.92993164 419.95581055 C-172.56334129 419.20589953 -200.63625874 415.08938782 -228.6484375 405.1015625 C-231.88701061 403.84388053 -231.88701061 403.84388053 -235 404 Z " fill="#000000" transform="translate(485,89)"/>
</svg>
