<?xml version="1.0" encoding="UTF-8"?>
<svg version="1.1" xmlns="http://www.w3.org/2000/svg" width="700" height="581">
<path d="M0 0 C1.875 1.0625 1.875 1.0625 3 3 C3.57427971 7.48882967 3.43319299 9.39907656 0.75167906 13.11886108 C-0.30622599 14.21041605 -1.38381719 15.28309583 -2.47611046 16.34023857 C-3.36414041 17.24083329 -3.36414041 17.24083329 -4.27011037 18.15962183 C-6.26772695 20.17684436 -8.28943768 22.16803924 -10.31185913 24.16036987 C-11.75973488 25.61201271 -13.20607318 27.06519037 -14.65099776 28.51977074 C-18.63344817 32.51985635 -22.63747285 36.49772332 -26.6452713 40.4723897 C-30.96063355 44.75963845 -35.25581831 49.06701716 -39.55348206 53.37199402 C-47.00505724 60.83065813 -54.46930789 68.27646178 -61.9426384 75.71331406 C-69.78226244 83.51474963 -77.61483012 91.32315703 -85.43800735 99.14108658 C-85.92432482 99.627068 -86.4106423 100.11304941 -86.91169666 100.61375754 C-89.38142512 103.08184552 -91.85103354 105.55005357 -94.32059927 108.01830436 C-111.81739177 125.50527953 -129.33073804 142.97559007 -146.85351562 160.43652344 C-163.87376141 177.39674574 -180.88522763 194.36570201 -197.88574219 211.34570312 C-198.40958969 211.868913 -198.93343718 212.39212288 -199.47315885 212.93118761 C-204.21103807 217.66330993 -208.94884528 222.39550435 -213.68658831 227.12776303 C-232.30517535 245.72460254 -250.93016336 264.31503167 -269.55693514 282.90367291 C-271.02841863 284.37215848 -272.49987846 285.84066774 -273.97133297 287.30918235 C-286.11925423 299.43274301 -298.27033226 311.5531253 -310.42687798 323.66803932 C-313.81996432 327.04966364 -317.21190361 330.43243193 -320.60281944 333.81623268 C-324.49649128 337.70162851 -328.39247616 341.58468868 -332.29040439 345.46581425 C-333.70582705 346.87592093 -335.12040639 348.28687469 -336.53409009 349.69872473 C-338.44451589 351.60639154 -340.35793788 353.51099956 -342.27220726 355.41480827 C-342.83007848 355.97330558 -343.38794971 356.53180288 -343.96272612 357.10722435 C-348.79104735 361.89711041 -348.79104735 361.89711041 -352.9375 362.25 C-356 362 -356 362 -357.875 360.9375 C-359.68046482 357.82808837 -359.3867158 355.53860058 -359 352 C-357.23721338 349.55467002 -355.65856628 347.72574322 -353.52388954 345.65976143 C-352.93186957 345.05936495 -352.3398496 344.45896847 -351.72988963 343.84037817 C-349.73227305 341.82315564 -347.71056232 339.83196076 -345.68814087 337.83963013 C-344.24026512 336.38798729 -342.79392682 334.93480963 -341.34900224 333.48022926 C-337.36655183 329.48014365 -333.36252715 325.50227668 -329.3547287 321.5276103 C-325.03936645 317.24036155 -320.74418169 312.93298284 -316.44651794 308.62800598 C-308.99494276 301.16934187 -301.53069211 293.72353822 -294.0573616 286.28668594 C-286.21773756 278.48525037 -278.38516988 270.67684297 -270.56199265 262.85891342 C-270.07567518 262.372932 -269.5893577 261.88695059 -269.08830334 261.38624246 C-266.61857488 258.91815448 -264.14896646 256.44994643 -261.67940073 253.98169564 C-244.18260823 236.49472047 -226.66926196 219.02440993 -209.14648438 201.56347656 C-192.12623859 184.60325426 -175.11477237 167.63429799 -158.11425781 150.65429688 C-157.59041031 150.131087 -157.06656282 149.60787712 -156.52684115 149.06881239 C-151.78896193 144.33669007 -147.05115472 139.60449565 -142.31341169 134.87223697 C-123.69482465 116.27539746 -105.06983664 97.68496833 -86.44306486 79.09632709 C-84.97158137 77.62784152 -83.50012154 76.15933226 -82.02866703 74.69081765 C-69.88074577 62.56725699 -57.72966774 50.4468747 -45.57312202 38.33196068 C-42.18003568 34.95033636 -38.78809639 31.56756807 -35.39718056 28.18376732 C-31.50350872 24.29837149 -27.60752384 20.41531132 -23.70959561 16.53418575 C-22.29417295 15.12407907 -20.87959361 13.71312531 -19.46590991 12.30127527 C-17.55548411 10.39360846 -15.64206212 8.48900044 -13.72779274 6.58519173 C-13.16992152 6.02669442 -12.61205029 5.46819712 -12.03727388 4.89277565 C-7.88901591 0.77753931 -5.93115158 -0.48417564 0 0 Z " fill="#000000" transform="translate(528,119)"/>
</svg>
