<?xml version="1.0" encoding="UTF-8"?>
<svg version="1.1" xmlns="http://www.w3.org/2000/svg" width="700" height="592">
<path d="M0 0 C1.9296875 0.76171875 1.9296875 0.76171875 3.8671875 2.88671875 C4.9296875 5.76171875 4.9296875 5.76171875 3.87109375 8.99609375 C1.90613406 13.2343726 -0.94665756 16.45658167 -4.0703125 19.88671875 C-5.23893306 21.2025464 -6.40689004 22.51896366 -7.57421875 23.8359375 C-8.15961426 24.49126465 -8.74500977 25.1465918 -9.34814453 25.82177734 C-11.9435738 28.74540663 -14.48083113 31.71642111 -17.0078125 34.69921875 C-17.84183594 35.67761719 -18.67585938 36.65601563 -19.53515625 37.6640625 C-22.52729979 41.25103698 -25.29686622 45.0047047 -28.0703125 48.76171875 C-27.56169678 49.26509766 -27.05308105 49.76847656 -26.52905273 50.28710938 C-24.18590522 52.60923853 -21.84684648 54.93544645 -19.5078125 57.26171875 C-18.70794922 58.05320313 -17.90808594 58.8446875 -17.08398438 59.66015625 C-12.73090891 63.99546406 -8.55105882 68.40490099 -4.54711914 73.06445312 C-2.80977297 75.06115185 -0.97398399 76.9236911 0.9296875 78.76171875 C4.25707004 82.03751397 7.34269518 85.45750342 10.38671875 88.99609375 C12.14765094 91.01113514 13.99942081 92.90866273 15.9296875 94.76171875 C14.42536045 98.59091487 12.37312556 100.54261422 8.9296875 102.76171875 C4.84704111 103.99421577 1.94789407 104.08235312 -1.9453125 102.44921875 C-10.29569952 97.75112047 -15.96095742 88.6800787 -21.87109375 81.3671875 C-24.51275585 78.23754519 -27.34715411 75.38769031 -30.29296875 72.546875 C-31.92943792 70.90321256 -33.34068452 69.21883125 -34.7578125 67.38671875 C-37.12742252 64.69689116 -38.66654757 63.73422302 -42.0703125 62.76171875 C-43.3903125 64.41171875 -44.7103125 66.06171875 -46.0703125 67.76171875 C-39.31152062 74.59318581 -32.25561034 81.06047543 -24.7578125 87.07421875 C-19.01259764 91.70825309 -13.66423734 96.71489029 -8.28515625 101.76171875 C-5.29181299 104.56760011 -2.23046047 107.28044577 0.87890625 109.95703125 C3.05310527 111.87032639 5.17597889 113.83495841 7.2980957 115.80566406 C11.99082564 120.16033052 16.73250063 124.32949258 21.89453125 128.12890625 C24.43590859 130.16786158 26.65436941 132.43056463 28.9296875 134.76171875 C32.23933865 138.11996185 35.57520524 141.44826991 38.9296875 144.76171875 C39.64898437 145.51195312 40.36828125 146.2621875 41.109375 147.03515625 C42.98513131 148.88171791 44.64648326 150.45090212 46.9296875 151.76171875 C50.59635417 151.34505208 50.59635417 151.34505208 53.9296875 149.76171875 C55.92890505 149.70577957 57.93072436 149.69732638 59.9296875 149.76171875 C59.82785156 150.68210938 59.72601563 151.6025 59.62109375 152.55078125 C59.40601039 158.95114075 59.50722027 163.65614798 63.984375 168.55859375 C67.18610745 171.64972014 70.59087404 174.48693497 74.06591797 177.26464844 C76.44063763 179.17213874 78.68525714 181.20337484 80.9296875 183.26171875 C81.70570313 183.95523438 82.48171875 184.64875 83.28125 185.36328125 C87.31637513 189.01750961 91.28290532 192.74436299 95.25732422 196.46435547 C99.17119723 200.12578417 103.09953732 203.7699206 107.0546875 207.38671875 C118.41269744 217.77421783 129.6868571 228.24975008 140.9296875 238.76171875 C142.5796875 237.11171875 144.2296875 235.46171875 145.9296875 233.76171875 C138.68538126 216.50780658 110.01864355 202.54767213 94.9296875 192.76171875 C96.69088306 188.87839374 98.59126388 187.24958786 102.1796875 184.88671875 C103.11296875 184.24992188 104.04625 183.613125 105.0078125 182.95703125 C107.9296875 181.76171875 107.9296875 181.76171875 110.81640625 182.19140625 C114.85835774 184.23013209 118.05835963 186.83603394 121.4921875 189.76171875 C122.91948587 190.94922444 124.34788462 192.13540871 125.77734375 193.3203125 C126.48133301 193.9066748 127.18532227 194.49303711 127.91064453 195.09716797 C137.93742303 203.3635012 148.52155301 210.98567989 158.9296875 218.76171875 C163.07379984 215.35271044 166.82937947 211.98257927 170.1796875 207.76171875 C170.9325 206.81941406 171.6853125 205.87710938 172.4609375 204.90625 C173.275625 203.86855469 174.0903125 202.83085937 174.9296875 201.76171875 C175.87757935 200.55727214 176.82549695 199.35284579 177.7734375 198.1484375 C179.19750359 196.33771705 180.61994028 194.52587069 182.03613281 192.70898438 C190.1998462 182.24827961 190.1998462 182.24827961 193.9296875 179.76171875 C197.25209074 180.08585565 198.53745053 180.36948178 200.9296875 182.76171875 C201.46274626 186.55774323 201.17671466 188.34740457 199.19921875 191.6640625 C198.38839844 192.66566406 197.57757813 193.66726563 196.7421875 194.69921875 C196.2994751 195.25206543 195.8567627 195.80491211 195.40063477 196.37451172 C190.77499041 202.09177943 185.91807924 207.61969905 181.0703125 213.1484375 C176.89952082 217.91887597 172.90177533 222.82483439 168.9296875 227.76171875 C172.25211445 231.76566918 175.66202936 235.5448162 179.3671875 239.19921875 C182.17412156 241.96866454 184.86411939 244.76756386 187.4296875 247.76171875 C190.67773445 251.55110686 194.17891232 255.02793203 197.73046875 258.53125 C200.37909802 261.21751521 202.8340998 264.03622631 205.2890625 266.8984375 C207.71304459 269.65138859 210.30478676 272.20083998 212.9296875 274.76171875 C211.42536045 278.59091487 209.37312556 280.54261422 205.9296875 282.76171875 C201.70571948 284.03687891 198.89875183 284.04280758 194.9296875 282.26171875 C188.08954704 278.40013656 183.6129794 272.43485181 178.9375 266.28125 C172.25539368 257.89611658 164.58572974 250.24762672 156.9296875 242.76171875 C153.76852974 244.13155378 152.9369783 244.75078255 150.9296875 247.76171875 C156.10910344 253.0366567 161.31464185 258.17943625 166.93359375 262.984375 C169.19101376 264.99440652 171.30704463 267.11004828 173.4296875 269.26171875 C176.13772315 272.00672417 178.87137999 274.63442785 181.8046875 277.13671875 C185.17526471 280.02386656 188.31472957 283.10418493 191.4296875 286.26171875 C195.11771619 290.00008737 198.88246418 293.55823853 202.91015625 296.9296875 C204.9296875 298.76171875 204.9296875 298.76171875 207.29296875 301.375 C211.55376991 306.62236109 211.55376991 306.62236109 217.47265625 309.0234375 C218.71982422 308.92482422 218.71982422 308.92482422 219.9921875 308.82421875 C222.5 308.8046875 222.5 308.8046875 224.9296875 309.76171875 C227.28855566 312.86597302 228.80820952 316.44470855 230.45629883 319.95922852 C233.95272643 327.28504021 238.34734449 332.89477422 244.9296875 337.76171875 C249.09341696 339.07240958 250.98797521 338.47990103 254.9296875 336.76171875 C256.2496875 336.76171875 257.5696875 336.76171875 258.9296875 336.76171875 C258.8155249 337.64730469 258.7013623 338.53289062 258.58374023 339.4453125 C258.24863408 347.40913349 259.45931077 352.10101101 264.88687134 358.08666992 C268.49284672 361.75264692 272.21862008 365.26959541 275.9921875 368.76171875 C277.51292123 370.22067622 279.03053065 371.68289761 280.54492188 373.1484375 C285.91391007 378.31310894 291.33563653 383.39896694 296.97021484 388.27368164 C300.88666445 391.68085835 304.58247681 395.26963383 308.24609375 398.9453125 C308.90624985 399.60451187 309.56640594 400.26371124 310.24656677 400.94288635 C311.63004256 402.3256871 313.01227833 403.70972951 314.39331055 405.0949707 C316.48700419 407.19402218 318.58598624 409.28767815 320.68554688 411.38085938 C322.03938321 412.73535661 323.39290925 414.09016406 324.74609375 415.4453125 C325.36295547 416.06014999 325.9798172 416.67498749 326.6153717 417.30845642 C330.91525052 421.63114201 334.9635631 426.13158408 338.9296875 430.76171875 C343.43778678 427.06023764 347.32050637 423.355222 350.9296875 418.76171875 C343.98232179 401.51308663 314.5349618 387.31394307 299.9296875 377.76171875 C301.25979588 373.77139361 303.18567564 372.82553016 306.6171875 370.44921875 C307.65230469 369.71058594 308.68742187 368.97195313 309.75390625 368.2109375 C312.9296875 366.76171875 312.9296875 366.76171875 315.91796875 367.22265625 C319.43064663 369.01772121 322.40398178 371.1999296 325.4296875 373.69921875 C326.67303427 374.70069817 327.91652786 375.70199532 329.16015625 376.703125 C329.78841309 377.21375488 330.41666992 377.72438477 331.06396484 378.25048828 C333.93384252 380.57508169 336.83670645 382.85689187 339.7421875 385.13671875 C340.58064209 385.79655762 340.58064209 385.79655762 341.43603516 386.46972656 C348.87426978 392.31092232 356.40444591 398.03336539 363.9296875 403.76171875 C368.66146894 399.90403272 372.82376024 395.8765877 376.7421875 391.19921875 C377.25354248 390.59787109 377.76489746 389.99652344 378.29174805 389.37695312 C381.75053122 385.27336658 385.02057394 381.05242427 388.2421875 376.76171875 C391.75281322 372.12495185 395.0553519 368.01127582 399.9296875 364.76171875 C402.8671875 364.88671875 402.8671875 364.88671875 404.9296875 365.76171875 C406.1796875 368.32421875 406.1796875 368.32421875 406.9296875 371.76171875 C404.40585615 376.95061775 401.1801459 381.09295832 397.3671875 385.38671875 C396.30041598 386.61035874 395.23401848 387.83432488 394.16796875 389.05859375 C393.62994629 389.67283203 393.09192383 390.28707031 392.53759766 390.91992188 C390.01895288 393.80492889 387.53369267 396.7176458 385.0546875 399.63671875 C384.21164062 400.62414062 383.36859375 401.6115625 382.5 402.62890625 C379.49251698 406.22506788 376.71221906 409.99048257 373.9296875 413.76171875 C374.78348999 414.60766602 374.78348999 414.60766602 375.65454102 415.47070312 C378.26980594 418.06498644 380.88101369 420.66331798 383.4921875 423.26171875 C384.38744141 424.14859375 385.28269531 425.03546875 386.20507812 425.94921875 C390.80638009 430.53366613 395.26032054 435.1682083 399.48803711 440.09960938 C401.21143187 442.08654783 403.03795254 443.93521603 404.9296875 445.76171875 C415.3159657 456.02675634 415.3159657 456.02675634 417.9296875 461.76171875 C414.65445725 465.01703878 411.93307782 467.43333646 407.4921875 468.88671875 C401.58122971 468.67931672 397.95199807 466.70952314 393.703125 462.6171875 C390.05190916 458.63347263 386.68311336 454.462552 383.3671875 450.19921875 C377.12058121 442.24086349 369.91862827 435.06348329 362.9296875 427.76171875 C358.51672379 428.5860735 356.50937661 431.02976965 353.6796875 434.32421875 C353.22078125 434.84435547 352.761875 435.36449219 352.2890625 435.90039062 C351.1614732 437.1806743 350.04451435 438.47030673 348.9296875 439.76171875 C353.17731689 444.84709323 357.63885054 449.56167351 362.3671875 454.19921875 C366.82380573 458.60849483 371.16195573 463.02271923 375.203125 467.8203125 C377.4590215 470.35692011 379.87957592 472.69921278 382.3046875 475.07421875 C387.60761765 480.31879478 392.31735963 485.89812569 396.9296875 491.76171875 C397.67347656 492.65117188 398.41726563 493.540625 399.18359375 494.45703125 C400.9296875 496.76171875 400.9296875 496.76171875 400.9296875 498.76171875 C395.82901679 497.19304052 392.27118275 494.05489071 388.2421875 490.69921875 C387.53102783 490.11430664 386.81986816 489.52939453 386.0871582 488.92675781 C381.36820923 485.02297311 376.78032579 480.99849468 372.26953125 476.85546875 C369.80459258 474.64978073 367.26095991 472.5797338 364.6796875 470.51171875 C359.47481441 466.31519714 354.60790021 461.81841056 349.78808594 457.19042969 C346.68301716 454.24285143 343.7373527 451.80103008 339.9296875 449.76171875 C339.20265625 450.61443359 339.20265625 450.61443359 338.4609375 451.484375 C331.14490645 459.91187999 322.35269352 469.21349794 311.9296875 473.76171875 C309.2421875 473.94921875 309.2421875 473.94921875 306.9296875 473.76171875 C306.5996875 473.43171875 306.2696875 473.10171875 305.9296875 472.76171875 C305.9296875 467.99522322 306.74494536 465.60547175 309.96484375 462.078125 C310.59535645 461.38275635 311.22586914 460.6873877 311.87548828 459.97094727 C312.55337402 459.24190186 313.23125977 458.51285645 313.9296875 457.76171875 C314.95618408 456.65364868 314.95618408 456.65364868 316.00341797 455.52319336 C318.11492223 453.25995985 320.23870815 451.00898789 322.3671875 448.76171875 C323.09873047 447.98699219 323.83027344 447.21226562 324.58398438 446.4140625 C326.36458964 444.52871575 328.14650428 442.64462684 329.9296875 440.76171875 C329.17300781 440.00632812 328.41632813 439.2509375 327.63671875 438.47265625 C326.14949668 436.98328812 324.6647284 435.49140093 323.19140625 433.98828125 C319.63049278 430.36551569 315.94339478 426.96213161 312.09765625 423.64453125 C309.68125799 421.54596555 307.30439726 419.40732175 304.9296875 417.26171875 C301.94906029 414.57188444 298.95723517 411.89861511 295.9296875 409.26171875 C291.21265873 405.15089448 286.57399041 400.95429615 281.9296875 396.76171875 C279.44100559 394.52112975 276.951572 392.2813871 274.4609375 390.04296875 C272.68600528 388.44333848 270.91554682 386.83873678 269.1484375 385.23046875 C268.25125 384.41578125 267.3540625 383.60109375 266.4296875 382.76171875 C265.20765625 381.64796875 265.20765625 381.64796875 263.9609375 380.51171875 C262.04702319 378.71830835 262.04702319 378.71830835 259.9296875 377.76171875 C259.62015525 392.61777131 260.50060542 407.43250114 261.26208496 422.26330566 C261.40207137 425.00824237 261.53815908 427.7533661 261.67410183 430.49850559 C261.83969011 433.83762835 262.00771262 437.17662611 262.17578125 440.515625 C262.2362413 441.72231339 262.29670135 442.92900177 262.35899353 444.17225647 C262.74147174 451.62260332 263.20189478 459.0639355 263.71760559 466.5059967 C265.14252284 488.38025513 265.14252284 488.38025513 260.9296875 495.76171875 C257.38219278 499.54571312 253.42524222 499.70830608 248.4296875 499.88671875 C245.4264017 499.77945854 242.80806667 499.60830086 239.9296875 498.76171875 C238.37731066 495.65696506 238.78774212 492.3716365 238.796875 488.96484375 C238.79543991 487.78701324 238.79543991 487.78701324 238.79397583 486.58538818 C238.79329394 484.91418376 238.79514883 483.24297671 238.79931641 481.57177734 C238.80457904 479.06341241 238.79941697 476.55523369 238.79296875 474.046875 C238.78955635 465.7331721 239.0184123 457.52259549 239.68505859 449.23095703 C240.15846407 442.51729249 240.26430863 435.80213295 240.3046875 429.07421875 C240.30991425 428.2984549 240.31514099 427.52269104 240.32052612 426.72341919 C240.37601233 408.50713608 238.2460469 390.57825321 235.78105164 372.5524292 C235.16529818 367.98316542 234.79802848 363.4905281 234.6171875 358.87890625 C234.34280995 355.25794925 233.96210599 353.13492462 231.48828125 350.4296875 C229.94333984 349.20185547 229.94333984 349.20185547 228.3671875 347.94921875 C227.35527344 347.11777344 226.34335937 346.28632813 225.30078125 345.4296875 C224.74696777 345.015979 224.1931543 344.60227051 223.62255859 344.17602539 C221.9296875 342.76171875 221.9296875 342.76171875 220.42822266 340.89233398 C217.23248876 337.21561662 214.90289068 335.89221934 210.01342773 335.23657227 C205.78040348 335.08073454 201.5576736 335.19678204 197.32580566 335.34790039 C192.22125194 335.52647909 187.11484438 335.58105698 182.0078125 335.6484375 C180.90177673 335.66558807 179.79574097 335.68273865 178.65618896 335.70040894 C164.84889371 335.87302754 151.06182607 335.33376063 137.26626587 334.83642197 C114.81630434 334.03267342 92.3958863 333.42305852 69.9296875 333.76171875 C71.19171277 330.41637929 72.62320073 327.41475731 74.49609375 324.37109375 C74.98142578 323.57960938 75.46675781 322.788125 75.96679688 321.97265625 C76.47017578 321.16054688 76.97355469 320.3484375 77.4921875 319.51171875 C77.99943359 318.68414062 78.50667969 317.8565625 79.02929688 317.00390625 C82.77916778 310.91223847 82.77916778 310.91223847 83.9296875 309.76171875 C90.15259342 309.55715097 96.07977391 310.02170928 102.23828125 310.85546875 C104.03921306 311.08527827 105.84032822 311.31365445 107.64160156 311.54077148 C108.57588989 311.6592746 109.51017822 311.77777771 110.47277832 311.89987183 C125.54632507 313.78430356 140.47826295 315.26597739 155.6796875 315.19921875 C156.99509521 315.19664062 158.31050293 315.1940625 159.66577148 315.19140625 C168.86338162 315.04998614 177.83754088 314.05663815 186.9296875 312.76171875 C184.57673379 309.78046084 182.34278142 307.07707375 179.4296875 304.63671875 C175.85918547 301.5858047 172.38093988 298.44616069 168.9296875 295.26171875 C164.97286457 291.61834405 160.98098263 288.02464351 156.91796875 284.5 C153.73740258 281.71934785 150.60915355 278.880923 147.47265625 276.05078125 C143.64167664 272.60231113 139.78677852 269.18092746 135.9296875 265.76171875 C131.55986962 267.41630998 128.83733126 270.71560999 125.6796875 274.01171875 C111.418133 288.58908623 111.418133 288.58908623 103.6796875 288.88671875 C102.7721875 288.84546875 101.8646875 288.80421875 100.9296875 288.76171875 C100.42377753 285.29262184 100.14821079 282.99167178 102.06640625 279.97265625 C103.95161953 277.82725615 105.92675919 275.79808493 107.9296875 273.76171875 C109.46783655 272.11856595 110.99405756 270.46490463 112.51855469 268.80908203 C113.56356549 267.67501869 114.61225169 266.54432828 115.66503906 265.41748047 C118.56740194 262.30184794 121.3136433 259.12698802 123.9296875 255.76171875 C119.80551435 251.52155323 115.56701469 247.4973391 111.0859375 243.63671875 C108.73005792 241.58812781 106.4246129 239.48968873 104.1171875 237.38671875 C100.71885198 234.31425102 97.25378227 231.37729253 93.6796875 228.51171875 C88.67199368 224.46595481 83.9651439 220.16495927 79.31542969 215.71777344 C74.09497077 210.77158341 68.52783863 206.27162169 62.9296875 201.76171875 C63.04693464 206.55359975 63.17346129 211.34520285 63.3046875 216.13671875 C63.33486969 217.25267426 63.33486969 217.25267426 63.36566162 218.39117432 C63.62614441 227.82335358 63.97971217 237.24513603 64.4765625 246.66796875 C64.52394562 247.58156158 64.57132874 248.49515442 64.62014771 249.43643188 C64.85234818 253.88868786 65.09573215 258.3398805 65.35693359 262.79052734 C65.83418382 271.41624447 65.99076084 279.94119847 65.578125 288.57421875 C65.53978546 289.39074921 65.50144592 290.20727966 65.46194458 291.04855347 C65.05282506 298.10400972 64.12682952 305.36743471 60.9296875 311.76171875 C55.3196875 311.76171875 49.7096875 311.76171875 43.9296875 311.76171875 C37.16352186 294.84630465 40.82167239 273.45969416 42.4296875 255.63671875 C43.51360955 243.50174297 44.25663257 231.44764819 44.3046875 219.26171875 C44.31822266 217.98796387 44.33175781 216.71420898 44.34570312 215.40185547 C44.29606764 205.03493388 43.6126558 194.17448427 37.015625 185.73828125 C35.9296875 183.76171875 35.9296875 183.76171875 35.6796875 180.3984375 C34.66364192 175.47167481 32.42021307 173.92005893 28.5546875 170.94921875 C27.26339241 169.91946008 25.97435403 168.88686567 24.6875 167.8515625 C24.0471582 167.33964355 23.40681641 166.82772461 22.74707031 166.30029297 C21.05623289 164.86885054 19.55206608 163.3882918 18.046875 161.765625 C13.22443148 156.64349394 13.22443148 156.64349394 6.83984375 154.109375 C3.87022134 154.07818877 1.01769297 154.29314613 -1.93437195 154.57395935 C-15.97829746 155.80848763 -30.106854 155.96229171 -44.1953125 155.94921875 C-45.56617004 155.94980789 -45.56617004 155.94980789 -46.96472168 155.95040894 C-63.09733204 155.94228072 -79.20185817 155.47686366 -95.3203125 154.82421875 C-96.4058844 154.7807431 -97.4914563 154.73726746 -98.60992432 154.69247437 C-101.70635302 154.56595558 -104.80242371 154.43314226 -107.8984375 154.296875 C-108.81118439 154.25827362 -109.72393127 154.21967224 -110.66433716 154.17990112 C-115.84750206 153.93912998 -120.93023889 153.47454028 -126.0703125 152.76171875 C-124.81849779 144.27719684 -121.00356293 135.23682421 -114.0703125 129.76171875 C-103.95542254 128.23071511 -93.03718154 130.6855279 -83.0078125 132.19921875 C-60.57439558 135.52637533 -39.62719397 136.35021334 -17.0703125 133.76171875 C-17.0703125 133.10171875 -17.0703125 132.44171875 -17.0703125 131.76171875 C-19.25832482 129.70686347 -21.4652438 127.75673304 -23.7578125 125.82421875 C-24.43682617 125.24446289 -25.11583984 124.66470703 -25.81542969 124.06738281 C-27.89587014 122.29343149 -29.98282244 120.52736452 -32.0703125 118.76171875 C-33.2387144 117.76613311 -34.40671224 116.77007299 -35.57421875 115.7734375 C-45.58476183 107.2448357 -55.78193298 98.95225082 -66.0703125 90.76171875 C-67.4315625 91.93734375 -67.4315625 91.93734375 -68.8203125 93.13671875 C-70.23567535 94.34657902 -71.6525809 95.55463508 -73.0703125 96.76171875 C-74.05902344 97.60476562 -75.04773438 98.4478125 -76.06640625 99.31640625 C-77.12987602 100.21523708 -78.19367926 101.1136735 -79.2578125 102.01171875 C-80.76408203 103.28789062 -80.76408203 103.28789062 -82.30078125 104.58984375 C-87.14845991 108.3914084 -89.86126811 109.00052815 -96.0703125 108.76171875 C-96.67318228 104.74258691 -96.13062465 102.36575152 -93.8203125 99.13671875 C-89.07083561 93.24002522 -83.49486414 88.02827374 -78.0703125 82.76171875 C-87.2235626 73.30945141 -98.39514418 66.0376192 -109.17797852 58.58422852 C-121.64032713 49.95739012 -121.64032713 49.95739012 -123.0703125 45.76171875 C-123.7545626 40.49458429 -123.70437203 36.07680517 -121.3828125 31.26171875 C-117.56238833 27.13153046 -114.74487588 25.55482166 -109.1328125 25.01171875 C-101.06519996 25.28099821 -95.28539723 30.11882317 -89.0703125 34.76171875 C-88.05976807 35.50856934 -88.05976807 35.50856934 -87.02880859 36.27050781 C-76.83878771 43.83672253 -66.94179728 51.78693847 -57.0703125 59.76171875 C-54.48698021 57.51213541 -54.48698021 57.51213541 -52.0703125 54.76171875 C-51.62804664 50.71590075 -51.62804664 50.71590075 -54.23828125 48.31640625 C-55.23291833 47.40997443 -56.24046973 46.51759062 -57.2578125 45.63671875 C-57.80606689 45.15154785 -58.35432129 44.66637695 -58.91918945 44.16650391 C-72.36049255 32.41230553 -87.27382549 22.6929202 -102.0703125 12.76171875 C-100.84098074 9.07372348 -99.51083891 8.30451561 -96.3828125 6.07421875 C-95.53332031 5.45160156 -94.68382813 4.82898438 -93.80859375 4.1875 C-90.51291095 2.47148827 -88.74035874 2.219066 -85.0703125 2.76171875 C-82.3515625 4.34375 -82.3515625 4.34375 -79.5703125 6.57421875 C-79.05678223 6.97874268 -78.54325195 7.3832666 -78.01416016 7.80004883 C-76.91636415 8.66689496 -75.82353019 9.54005649 -74.73535156 10.41894531 C-73.10568923 11.73318913 -71.46249309 13.027812 -69.8125 14.31640625 C-67.51939419 16.10820973 -65.2302786 17.90485738 -62.9453125 19.70703125 C-61.65366711 20.72528741 -60.3619988 21.74351448 -59.0703125 22.76171875 C-58.3071875 23.36338867 -57.5440625 23.96505859 -56.7578125 24.58496094 C-54.3231413 26.50167925 -51.88457113 28.41334333 -49.4453125 30.32421875 C-48.67493652 30.93225342 -47.90456055 31.54028809 -47.11083984 32.16674805 C-46.3833252 32.73562744 -45.65581055 33.30450684 -44.90625 33.890625 C-44.26220215 34.3966626 -43.6181543 34.9027002 -42.95458984 35.42407227 C-41.06431686 36.76597505 -39.16850282 37.78363031 -37.0703125 38.76171875 C-30.31726422 32.29004748 -24.43335974 25.47853392 -18.76416016 18.05029297 C-4.57420296 -0.52646487 -4.57420296 -0.52646487 0 0 Z " fill="#000000" transform="translate(193.0703125,66.23828125)"/>
<path d="M0 0 C-0.15243967 2.66769422 -0.44650989 4.44334709 -2.3671875 6.375 C-3.89547824 7.60348251 -5.44700516 8.80289981 -7 10 C-7.33 10.66 -7.66 11.32 -8 12 C-7.41444336 12.03085693 -6.82888672 12.06171387 -6.22558594 12.09350586 C0.81513863 12.61307324 7.08354256 14.29246551 13.75 16.5625 C15.33216309 17.10040161 15.33216309 17.10040161 16.94628906 17.64916992 C35.98409568 24.33579739 50.89504566 34.84840034 60.0859375 53.1640625 C63.55728724 61.66727701 63.26040292 72.16323751 60.5 80.8125 C54.5936301 94.6832084 42.69491162 102.88408257 29.2734375 108.75 C10.0897573 116.07551034 -12.27546895 116.31295523 -31.4375 108.6875 C-41.29461265 104.15564875 -49.2566434 98.61299707 -57 91 C-57.66257812 90.3503125 -58.32515625 89.700625 -59.0078125 89.03125 C-67.15318358 80.42748141 -70.38528543 70.35273883 -70.27734375 58.70703125 C-69.59300337 49.56000279 -65.47927877 42.17745717 -60 35 C-59.49855469 34.33355469 -58.99710938 33.66710937 -58.48046875 32.98046875 C-48.3799934 20.52075828 -33.76407895 13.87064888 -19.86572266 6.56933594 C-16.19955078 4.56165551 -12.67912109 2.35218274 -9.17285156 0.07836914 C-5.73835634 -1.62614383 -3.59060784 -1.09279369 0 0 Z M-43.71484375 33.98046875 C-49.53334701 41.79063572 -52.06328475 51.40344343 -50.76171875 61.07421875 C-47.39141635 74.01963668 -39.9485947 83.35584318 -28.5625 90.1875 C-13.53382857 98.7225304 5.3421222 102.56893627 22.3125 98.875 C30.94313652 96.43214961 37.58806496 91.86091977 42.12109375 84.07421875 C45.58756807 77.32119092 46.49785846 70.66613972 44.15234375 63.359375 C37.18002269 47.94936371 20.13731438 38.93349046 5.06835938 32.77441406 C-10.5940255 26.91026335 -31.30544995 19.64889094 -43.71484375 33.98046875 Z " fill="#000000" transform="translate(150,429)"/>
<path d="M0 0 C0.495 1.485 0.495 1.485 1 3 C-1.31989611 6.35096105 -4.07157569 9.17616228 -7 12 C-6.39631592 12.03665771 -5.79263184 12.07331543 -5.1706543 12.11108398 C1.30308756 12.61568531 7.05662599 13.95907315 13.1875 16.0625 C14.09806152 16.37268066 15.00862305 16.68286133 15.94677734 17.00244141 C34.07028984 23.38791116 50.04657228 33.06420259 59.34375 50.5234375 C63.83924397 60.18874954 64.48737074 70.44584509 61.03515625 80.59375 C55.45863815 93.55652415 44.69305994 102.39014835 32 108 C23.71548632 111.15134928 14.89955015 113.77063015 6 114 C4.98164063 114.05027344 3.96328125 114.10054688 2.9140625 114.15234375 C-16.76195281 114.70504081 -34.6879472 109.51880934 -50 97 C-50.64324219 96.51917969 -51.28648437 96.03835937 -51.94921875 95.54296875 C-61.48380683 88.10813265 -68.21241149 76.97437343 -69.875 65 C-70.6009346 53.04999965 -65.95053566 42.25762512 -58.18530273 33.27685547 C-49.14870902 23.2261962 -38.05216423 16.63808834 -26.25 10.25 C-25.05820613 9.59836468 -23.86679822 8.94602295 -22.67578125 8.29296875 C-20.4256797 7.06034844 -18.17329144 5.83188958 -15.91821289 4.60839844 C-13.53908342 3.29712052 -11.21060197 1.93631735 -8.88671875 0.53125 C-5.41452394 -1.31056375 -3.71285774 -1.08669007 0 0 Z M-42.71875 34.0859375 C-48.44591076 42.08711797 -51.07862285 50.15566748 -50 60 C-48.04858777 71.11074353 -41.95127854 80.46800206 -32.93359375 87.15234375 C-17.26716884 97.01947955 1.55804823 102.64164206 20.10546875 99.46875 C29.60375833 97.05814961 36.17946785 93.02127082 42.1875 85.125 C45.47182563 79.46236961 46.9489625 73.5332418 46 67 C42.20888922 53.53915729 30.56862852 45.54254726 19 39 C6.34296256 32.32041932 -7.74365926 27.46330327 -22 26 C-22.9590625 25.89816406 -23.918125 25.79632813 -24.90625 25.69140625 C-33.21839797 25.27830251 -37.48950849 27.73953985 -42.71875 34.0859375 Z " fill="#000000" transform="translate(350,57)"/>
<path d="M0 0 C0.495 1.485 0.495 1.485 1 3 C-1.53790306 6.45436806 -3.43145646 8.62097097 -7 11 C-5.8140625 11.29132813 -4.628125 11.58265625 -3.40625 11.8828125 C20.44983197 17.86542794 44.03316104 26.12109536 58 48 C62.99998676 57.10058566 64.09989955 67.13305925 61.9375 77.25 C58.4054409 89.34173385 49.521032 98.55471495 38.68359375 104.625 C18.72466402 114.85140941 -3.38531282 117.15452369 -25 111 C-41.44064077 105.41414374 -57.72353676 94.74602895 -66 79 C-70.54927826 67.87803316 -71.42246389 59.33886915 -67.3203125 48.05078125 C-59.06047941 28.9651906 -42.71560685 19.2310823 -25.1875 9.75 C-23.23683281 8.68797815 -21.28708425 7.62429188 -19.33772278 6.55987549 C-17.58369788 5.60317917 -15.82743927 4.65058146 -14.07104492 3.69824219 C-12.11181132 2.61481513 -10.1831127 1.47280425 -8.30200195 0.25878906 C-5.20943126 -1.43230167 -3.33390243 -0.85285876 0 0 Z M-45.4375 37.5 C-50.57319493 45.97887585 -51.47100502 55.30560591 -49.34765625 64.96875 C-47.15790023 71.66019329 -43.7385242 76.83439851 -39 82 C-38.52304687 82.53109375 -38.04609375 83.0621875 -37.5546875 83.609375 C-25.04665769 95.78996948 -5.08389146 100.68648321 11.88623047 100.47314453 C21.92357652 100.04019769 31.83350849 97.37027799 39 90 C44.09589609 83.70199509 46.32455249 77.13886383 46 69.0625 C44.78275143 59.92614004 37.87310258 52.69002754 31 47 C14.681701 35.55121993 -4.14827448 28.03607441 -24 26 C-24.82113281 25.88140625 -25.64226563 25.7628125 -26.48828125 25.640625 C-35.15033597 24.86268572 -40.72762604 30.83529971 -45.4375 37.5 Z " fill="#000000" transform="translate(553,247)"/>
<path d="M0 0 C2.3125 0.75 2.3125 0.75 4.3125 1.75 C2.87220722 6.79102474 0.27158461 8.59228506 -3.6875 11.75 C-2.5015625 12.04132813 -1.315625 12.33265625 -0.09375 12.6328125 C24.34338062 18.76114301 47.46099706 27.15355158 61.4921875 49.640625 C66.8014198 59.17399102 67.30444604 69.87821324 64.6640625 80.3125 C60.76171345 91.76893757 50.68984537 100.77036331 40.2421875 106.40625 C19.9442322 116.19533483 -3.46893505 118.07713709 -24.859375 110.6484375 C-40.23033653 104.60148563 -55.49267431 94.22943146 -63.03515625 79.03515625 C-67.41392818 68.34718604 -68.19763399 58.60653681 -63.6875 47.75 C-54.87510133 29.29292056 -39.21078218 19.87705247 -21.875 10.5 C-19.92433281 9.43797815 -17.97458425 8.37429188 -16.02522278 7.30987549 C-14.27119788 6.35317917 -12.51493927 5.40058146 -10.75854492 4.44824219 C-8.79009578 3.35971907 -6.84954875 2.21812407 -4.95043945 1.01269531 C-2.6875 -0.25 -2.6875 -0.25 0 0 Z M-42.125 38.25 C-47.25452655 46.71869204 -48.20755949 56.10837645 -46 65.75390625 C-43.93974938 71.92607374 -41.06209404 76.94410796 -36.6875 81.75 C-36.15898437 82.33265625 -35.63046875 82.9153125 -35.0859375 83.515625 C-21.95588047 96.35647372 -2.36158537 101.40601729 15.50024414 101.2253418 C25.85956521 100.83874433 35.5198621 97.93939392 42.73828125 90.2265625 C47.29830102 84.49627217 49.76895013 77.46624569 49.25 70.125 C47.37267212 59.18669162 40.09177858 51.95380028 31.33203125 45.58203125 C15.63112423 35.49834314 -2.12656803 28.80426981 -20.6875 26.75 C-21.5125 26.63011719 -22.3375 26.51023437 -23.1875 26.38671875 C-31.84413896 25.62024551 -37.4177438 31.58900396 -42.125 38.25 Z " fill="#000000" transform="translate(344.6875,428.25)"/>
<path d="M0 0 C0.495 1.485 0.495 1.485 1 3 C-1.45798982 6.27731976 -4.10454437 9.11456325 -7 12 C-6.39704102 12.03593262 -5.79408203 12.07186523 -5.17285156 12.10888672 C1.33638748 12.61220428 7.092937 13.99446074 13.25 16.125 C14.16313965 16.43775879 15.0762793 16.75051758 16.01708984 17.07275391 C33.29666327 23.14510708 50.04049574 32.23042226 58.8125 49.0625 C63.58658785 59.42729599 64.99505097 70.54383071 61.16015625 81.53125 C54.27254346 96.18771897 41.66641388 104.46660318 27 110 C6.4188343 116.55619397 -16.58488229 115.78823109 -36 106 C-36.97195313 105.53078125 -37.94390625 105.0615625 -38.9453125 104.578125 C-49.66800692 98.92281358 -60.84338131 89.23153934 -66 78 C-66.31324219 77.35417969 -66.62648438 76.70835937 -66.94921875 76.04296875 C-70.46118223 67.47759176 -70.32460402 57.06760952 -67.5625 48.3125 C-57.73670869 25.10984192 -34.23340492 14.50420508 -13.38085938 3.31518555 C-11.68546235 2.37864907 -10.02907801 1.36997829 -8.40429688 0.31567383 C-5.23985662 -1.41596392 -3.41586695 -0.87382643 0 0 Z M-43.81640625 35.41015625 C-48.46134911 42.65179006 -51.16899775 50.27635431 -50 59 C-48.20049677 67.14888677 -45.78132652 73.90546392 -40 80 C-39.39800781 80.65355469 -38.79601562 81.30710938 -38.17578125 81.98046875 C-29.11960286 90.89864823 -16.37225859 96.55921429 -4 99 C-2.906875 99.226875 -1.81375 99.45375 -0.6875 99.6875 C12.25915594 100.78467423 25.13407542 100.75222628 36.02734375 92.8046875 C42.34422306 87.02568109 45.92148608 79.75761406 46.4375 71.25 C46.24091925 63.54866003 42.69815016 57.51492652 37.5625 51.9375 C20.17826184 35.84817716 -6.33059433 25.24319493 -30 25.5390625 C-36.30243184 26.50740489 -40.09802702 30.47630683 -43.81640625 35.41015625 Z " fill="#000000" transform="translate(552,57)"/>
<path d="M0 0 C2.80285018 1.1041531 3.74392719 2.10210033 5.0625 4.8125 C3.99432551 9.08519796 2.43442969 12.01653416 -0.375 15.375 C-1.44621094 16.66664063 -1.44621094 16.66664063 -2.5390625 17.984375 C-3.33054687 18.91765625 -4.12203125 19.8509375 -4.9375 20.8125 C-5.79980604 21.83826697 -6.66177485 22.86431751 -7.5234375 23.890625 C-8.43192762 24.96905679 -9.34078819 26.04717659 -10.25 27.125 C-10.70592529 27.66576172 -11.16185059 28.20652344 -11.6315918 28.76367188 C-14.09325381 31.67193564 -16.58387164 34.54794641 -19.12109375 37.390625 C-19.63438232 37.97416748 -20.1476709 38.55770996 -20.67651367 39.15893555 C-21.6650079 40.28159283 -22.66355787 41.39549515 -23.6730957 42.49926758 C-25.19262527 44.17939801 -25.19262527 44.17939801 -26.9375 46.8125 C-26.61634671 50.23486963 -25.23046585 51.86989235 -22.8046875 54.203125 C-22.16668213 54.82630615 -21.52867676 55.4494873 -20.87133789 56.09155273 C-20.19192139 56.74196533 -19.51250488 57.39237793 -18.8125 58.0625 C-17.43176379 59.4108891 -16.05283162 60.76112818 -14.67578125 62.11328125 C-14.0204541 62.75604004 -13.36512695 63.39879883 -12.68994141 64.06103516 C-10.13937856 66.61017668 -7.79753528 69.30560401 -5.47265625 72.05859375 C-3.09255425 74.77784515 -0.49194778 77.26663168 2.08203125 79.80078125 C4.66444685 82.42394502 7.0539008 85.1905452 9.453125 87.98046875 C11.55489542 90.37301809 13.77690942 92.59616974 16.0625 94.8125 C14.33842413 99.20105677 11.23276127 101.72736937 7.0625 103.8125 C2.08007863 104.52427448 -0.85251542 103.20273149 -4.87109375 100.48046875 C-9.55077681 96.70310643 -13.19533311 91.97752293 -16.94921875 87.3125 C-21.5461615 81.60243432 -26.29463497 76.08950244 -31.25 70.6875 C-31.84893066 70.02347168 -32.44786133 69.35944336 -33.06494141 68.67529297 C-33.63776855 68.05799316 -34.2105957 67.44069336 -34.80078125 66.8046875 C-35.30907471 66.25151855 -35.81736816 65.69834961 -36.34106445 65.12841797 C-38.17655457 63.61545089 -39.61559271 63.21535359 -41.9375 62.8125 C-47.14729744 68.47998058 -52.35469537 74.14877389 -57.5 79.875 C-58.22574219 80.679375 -58.95148438 81.48375 -59.69921875 82.3125 C-61.25603329 84.05135045 -62.79937422 85.80231966 -64.33203125 87.5625 C-82.34556061 107.9872892 -82.34556061 107.9872892 -92.8125 109.125 C-94.9375 108.8125 -94.9375 108.8125 -95.9375 107.8125 C-96.15182023 102.77597466 -94.81718847 100.25212316 -91.5 96.5 C-89.66664565 94.5780778 -87.81678258 92.68852277 -85.9375 90.8125 C-85.25252441 90.12591309 -84.56754883 89.43932617 -83.86181641 88.73193359 C-80.74928334 85.6154007 -77.63691793 82.49921986 -74.49829102 79.40893555 C-70.32165778 75.28201876 -66.3560517 71.06635376 -62.53173828 66.61181641 C-59.51390644 63.20577955 -56.12210711 60.1947548 -52.78125 57.109375 C-50.7580895 55.04534974 -50.7580895 55.04534974 -50.828125 52.8359375 C-52.43610804 49.90306703 -54.70755733 47.86972534 -57.1875 45.6875 C-58.00311401 44.95974365 -58.00311401 44.95974365 -58.83520508 44.21728516 C-72.21795178 32.42017195 -87.15558282 22.73392238 -101.9375 12.8125 C-99.51857639 9.72850578 -97.41745192 7.09670472 -94.125 4.9375 C-93.18720703 4.29167969 -93.18720703 4.29167969 -92.23046875 3.6328125 C-88.71192109 2.37404758 -86.53589528 2.84457722 -82.9375 3.8125 C-80.22531942 5.49113674 -77.89111271 7.5217925 -75.5 9.625 C-74.09077662 10.81774977 -72.67925378 12.00778725 -71.265625 13.1953125 C-70.19151367 14.10265137 -70.19151367 14.10265137 -69.09570312 15.02832031 C-65.73589004 17.80586715 -62.25338609 20.40743476 -58.75 23 C-57.43344557 23.97766507 -56.11703759 24.95552739 -54.80078125 25.93359375 C-54.16221191 26.40780762 -53.52364258 26.88202148 -52.86572266 27.37060547 C-47.84472539 31.12522814 -42.89541727 34.97520787 -37.9375 38.8125 C-34.27585647 37.32343163 -32.4850084 35.33704864 -30.0625 32.25 C-29.28390625 31.27289063 -28.5053125 30.29578125 -27.703125 29.2890625 C-27.26935547 28.7415332 -26.83558594 28.19400391 -26.38867188 27.62988281 C-23.56791612 24.09729435 -20.68621876 20.61451564 -17.8125 17.125 C-17.23902832 16.4249585 -16.66555664 15.72491699 -16.07470703 15.00366211 C-13.13144275 11.42200322 -10.15729519 7.86890687 -7.1328125 4.35546875 C-6.56836426 3.69957764 -6.00391602 3.04368652 -5.42236328 2.36791992 C-3.59405436 0.45273476 -2.67590498 -0.25895855 0 0 Z " fill="#000000" transform="translate(188.9375,245.1875)"/>
<path d="M0 0 C0.01213028 0.85608353 0.01213028 0.85608353 0.02450562 1.72946167 C0.54324448 37.75754578 1.23308517 73.75931156 4.125 109.6875 C4.79043422 117.9848506 5.20555494 126.23713253 5.25 134.5625 C5.25918457 135.47281982 5.26836914 136.38313965 5.27783203 137.32104492 C5.23158828 147.24772932 4.24313822 155.75686178 -3 163 C-6.38466075 163.56910225 -9.61109949 163.52301142 -13 163 C-17.65150788 159.6082755 -19.38243702 155.96521049 -20.53125 150.44921875 C-21.13164081 146.03134304 -21.23353723 141.70474813 -21.25 137.25 C-21.25467285 136.26410889 -21.2593457 135.27821777 -21.26416016 134.26245117 C-21.20712611 125.94625318 -20.45201432 117.7569287 -19.59805298 109.49578857 C-17.95168181 93.38076785 -18.17558381 78.13654051 -20 62 C-20.16687301 60.51058431 -20.33370028 59.02116349 -20.50048828 57.53173828 C-20.67861519 55.94953349 -20.85683962 54.36733967 -21.03515625 52.78515625 C-21.12444901 51.98998596 -21.21374176 51.19481567 -21.30574036 50.37554932 C-21.74514607 46.47921433 -22.19649288 42.58521899 -22.67797852 38.69384766 C-23.8005127 29.40334657 -24.23053123 20.36212951 -24 11 C-20.3782427 9.16020779 -16.75208102 7.32927134 -13.125 5.5 C-12.09246094 4.97535156 -11.05992187 4.45070313 -9.99609375 3.91015625 C-8.51689453 3.16572266 -8.51689453 3.16572266 -7.0078125 2.40625 C-6.09660645 1.94541016 -5.18540039 1.48457031 -4.24658203 1.00976562 C-2 0 -2 0 0 0 Z " fill="#000000" transform="translate(254,403)"/>
<path d="M0 0 C0.60025632 10.4774645 1.16549631 20.95645722 1.70898438 31.43701172 C1.89680923 35.05358718 2.09093001 38.66972749 2.29101562 42.28564453 C3.66875229 67.39270295 4.20992775 92.4661664 4.2458725 117.60686493 C4.24997643 119.86204975 4.25748848 122.11720218 4.26568604 124.37237549 C4.27747514 127.94890567 4.27764146 131.52526197 4.2687645 135.10179901 C4.2657198 137.05633022 4.27152689 139.01086898 4.27761841 140.96539307 C4.24283375 147.63130703 3.74385601 153.55881585 2 160 C-9.89764207 162.79691405 -9.89764207 162.79691405 -16 160 C-19.92367553 156.07632447 -20.13240514 151.90467174 -20.18945312 146.5246582 C-20.18880859 145.794646 -20.18816406 145.06463379 -20.1875 144.3125 C-20.1884668 143.12563599 -20.1884668 143.12563599 -20.18945312 141.91479492 C-20.14367625 136.50324021 -19.7930364 131.17196462 -19.28076172 125.78613281 C-16.46090787 95.92020251 -17.79357152 66.86120947 -21.80859375 37.18359375 C-24.77639273 15.16458909 -24.77639273 15.16458909 -22 11 C-21.01 10.34 -20.02 9.68 -19 9 C-17.868685 7.96519528 -16.74399817 6.92311141 -15.625 5.875 C-10.81175737 1.81513448 -6.40248717 -0.19666343 0 0 Z " fill="#000000" transform="translate(253,34)"/>
<path d="M0 0 C0.50585956 11.12050677 1.01021544 22.24108071 1.51279354 33.3617363 C1.74635346 38.5287873 1.98037906 43.69581621 2.21557617 48.86279297 C4.01439768 88.39498093 4.01439768 88.39498093 4.62109375 105.1875 C4.65984116 106.25103699 4.69858856 107.31457397 4.73851013 108.41033936 C6.0290682 145.8837272 6.0290682 145.8837272 2 162 C-3.94 161.67 -9.88 161.34 -16 161 C-21.05247477 147.1606126 -20.0737959 133.44302685 -19.0625 119 C-17.2688092 92.81395871 -17.6186487 67.77018443 -21.22094727 41.75048828 C-22.32416752 33.70410636 -23.28430697 25.68265055 -23.52734375 17.55859375 C-23.56762695 16.86608521 -23.60791016 16.17357666 -23.64941406 15.46008301 C-23.68752082 11.3763087 -23.12275314 10.12512623 -20.22167969 7.16796875 C-14.3619931 3.26271858 -7.20538574 0 0 0 Z " fill="#000000" transform="translate(451,34)"/>
<path d="M0 0 C0.02061493 0.6466864 0.04122986 1.2933728 0.06246948 1.95965576 C0.30536218 9.54994887 0.55451195 17.14002443 0.80771637 24.72998047 C0.85257194 26.07665475 0.89726494 27.42333446 0.94179535 28.77001953 C1.46296153 44.52916293 2.06664943 60.26643316 3.125 76 C4.18353394 92.17502388 4.21978404 108.35775797 4.25 124.5625 C4.25517639 125.84423096 4.26035278 127.12596191 4.26568604 128.4465332 C4.27747476 132.13243586 4.27419816 135.81800034 4.265625 139.50390625 C4.26958282 140.60142715 4.27354065 141.69894806 4.27761841 142.82972717 C4.23627774 149.78644966 3.41989468 156.18640909 2 163 C-4.27 162.67 -10.54 162.34 -17 162 C-18.72295495 156.83113514 -19.28229602 153.1223795 -19.23046875 147.84765625 C-19.23001053 147.07046738 -19.22955231 146.2932785 -19.2290802 145.49253845 C-19.22606927 143.84942089 -19.21821779 142.2063059 -19.20581055 140.56323242 C-19.18778403 138.10129157 -19.18529976 135.63973379 -19.18554688 133.17773438 C-19.16602756 124.59983457 -18.87078756 116.114914 -18.23803711 107.55932617 C-16.78880576 85.88922993 -18.52687675 64.92604788 -21.51269531 43.50048828 C-22.13557962 39.02608188 -22.70706573 34.54719986 -23.25 30.0625 C-23.39953125 28.89847656 -23.5490625 27.73445313 -23.703125 26.53515625 C-23.80109375 25.36855469 -23.8990625 24.20195312 -24 23 C-24.14099121 22.2059375 -24.28198242 21.411875 -24.42724609 20.59375 C-24.75640406 17.74570126 -24.80185995 15.76180779 -24 13 C-20.8055834 9.83205011 -17.10087932 7.92452391 -13.125 5.875 C-12.09246094 5.30007812 -11.05992187 4.72515625 -9.99609375 4.1328125 C-2.46847098 0 -2.46847098 0 0 0 Z " fill="#000000" transform="translate(451,215)"/>
<path d="M0 0 C1.56186035 0.19916016 1.56186035 0.19916016 3.15527344 0.40234375 C4.32670898 0.53858154 5.49814453 0.67481934 6.70507812 0.81518555 C7.96223633 0.98832275 9.21939453 1.16145996 10.51464844 1.33984375 C12.4738623 1.57344604 12.4738623 1.57344604 14.47265625 1.81176758 C20.44757692 2.52550696 26.40493737 3.351699 32.35839844 4.2265625 C57.98844891 7.92638075 82.68278835 7.02821458 108.19873047 3.11914062 C132.59386939 -0.59784359 132.59386939 -0.59784359 138.49511719 3.68359375 C139.1409375 4.72515625 139.78675781 5.76671875 140.45214844 6.83984375 C141.14566406 7.93167969 141.83917969 9.02351562 142.55371094 10.1484375 C147.26464844 18.93573416 147.26464844 18.93573416 147.26464844 24.33984375 C129.62792863 26.16441705 112.17360535 26.62323954 94.45214844 26.52734375 C91.82120861 26.52047024 89.19026779 26.51396377 86.55932617 26.5078125 C71.65752767 26.45765964 56.77510302 26.23292371 41.88330078 25.69824219 C23.01887287 25.0545315 4.13726575 25.25387276 -14.73535156 25.33984375 C-14.43458273 23.90376154 -14.1287485 22.46873963 -13.82080078 21.03417969 C-13.56615555 19.83532135 -13.56615555 19.83532135 -13.30636597 18.61224365 C-12.5654516 15.66371254 -11.3648176 13.2246081 -9.86035156 10.58984375 C-9.36792969 9.708125 -8.87550781 8.82640625 -8.36816406 7.91796875 C-3.63985697 0.45222072 -3.63985697 0.45222072 0 0 Z " fill="#000000" transform="translate(279.7353515625,194.66015625)"/>
<path d="M0 0 C0.24234375 0.65226562 0.4846875 1.30453125 0.734375 1.9765625 C2.26829674 5.97655841 3.671772 9.52696553 6.125 13.0625 C7.90768816 15.85537812 8.46883453 17.51354934 9.1171875 20.68359375 C9.28589355 21.4923999 9.45459961 22.30120605 9.62841797 23.13452148 C9.75104004 23.75012939 9.87366211 24.3657373 10 25 C9.4513176 24.99777939 8.90263519 24.99555878 8.33732605 24.99327087 C-24.68031962 24.81652364 -24.68031962 24.81652364 -57.6875 25.5 C-134.24276115 28.11853255 -134.24276115 28.11853255 -153 23 C-151.23799645 18.1153346 -148.84249705 13.66988983 -146.25 9.1875 C-145.85167969 8.39923828 -145.45335937 7.61097656 -145.04296875 6.79882812 C-143.55895347 4.30023096 -142.35015801 2.7220319 -140 1 C-135.29191499 0.00953011 -130.74057383 0.46871459 -126 1 C-125.26769165 1.07719269 -124.5353833 1.15438538 -123.78088379 1.23391724 C-118.87721697 1.7667412 -113.99166699 2.40715318 -109.10562134 3.08102417 C-80.16006985 7.04107368 -54.38948874 6.92880969 -25.49926758 2.40942383 C-17.0277616 1.09053335 -8.58952872 -0.09301008 0 0 Z " fill="#000000" transform="translate(623,375)"/>
<path d="M0 0 C4.67209386 0.56689022 9.32773779 1.24803294 13.98553467 1.92071533 C42.55832619 5.96058773 69.60081063 5.91111793 98.12927246 1.56152344 C117.47310219 -1.38696463 117.47310219 -1.38696463 122.91394043 -0.21826172 C128.47772855 4.89563099 131.87671018 12.569184 133.91394043 19.78173828 C133.91394043 21.10173828 133.91394043 22.42173828 133.91394043 23.78173828 C114.54634976 23.80513904 95.17876198 23.82275265 75.81116009 23.83355045 C66.81766473 23.83869819 57.82417818 23.84571178 48.83068848 23.85717773 C40.9884113 23.86717119 33.14614051 23.87360278 25.30385715 23.87582678 C21.15468322 23.87712598 17.00552754 23.88016157 12.85635948 23.88746834 C8.94368007 23.89430222 5.03102626 23.89634038 1.11834145 23.89484596 C-0.31060297 23.895119 -1.73954833 23.89708012 -3.16848755 23.90094376 C-11.20181455 23.92158237 -19.10100627 23.6947422 -27.08605957 22.78173828 C-27.08605957 14.1180253 -23.57452817 9.29529051 -18.08605957 2.78173828 C-17.66356934 2.24468262 -17.2410791 1.70762695 -16.80578613 1.15429688 C-12.5923218 -2.20857883 -5.04522212 -0.52787507 0 0 Z " fill="#000000" transform="translate(498.0860595703125,196.21826171875)"/>
<path d="M0 0 C3.87474457 -0.11668214 7.74903396 -0.18741231 11.625 -0.25 C13.26662109 -0.30027344 13.26662109 -0.30027344 14.94140625 -0.3515625 C21.29737363 -0.42860453 24.91150086 -0.16261015 30 4 C45.74231089 10.03144752 63.48186635 8.37655606 79.875 6.75 C81.25633825 6.61798423 82.63768613 6.48606919 84.01904297 6.35424805 C91.26175793 5.64955398 98.48593216 4.84067386 105.703125 3.91015625 C106.41288483 3.81892487 107.12264465 3.72769348 107.85391235 3.63369751 C111.24347366 3.19499347 114.62993043 2.74215071 118.01513672 2.27050781 C126.43172189 1.14390424 134.51350981 0.78706269 143 1 C144.5159928 4.05483301 146.00986948 7.11997906 147.5 10.1875 C148.14388672 11.48397461 148.14388672 11.48397461 148.80078125 12.80664062 C149.20683594 13.64775391 149.61289063 14.48886719 150.03125 15.35546875 C150.40830078 16.12528076 150.78535156 16.89509277 151.17382812 17.68823242 C152.09615879 20.26906843 152.05962278 22.28013341 152 25 C132.64968006 25.02340817 113.29936301 25.04101798 93.94903183 25.05181217 C84.96341222 25.05695834 75.97780144 25.06396892 66.9921875 25.07543945 C59.15612667 25.08543773 51.32007224 25.09186563 43.48400521 25.09408849 C39.33871179 25.09538689 35.19343665 25.09841725 31.04814911 25.10573006 C27.1379289 25.11257159 23.22773432 25.11460059 19.3175087 25.11310768 C17.89059688 25.11338038 16.4636841 25.11533687 15.0367775 25.11920547 C6.63540271 25.14084524 -1.6402386 24.85777094 -10 24 C-9.71696857 18.62240288 -7.44403594 15.13338136 -4.5703125 10.7578125 C-2.58988155 7.27974222 -1.33727425 3.77159383 0 0 Z " fill="#000000" transform="translate(77,375)"/>
</svg>
