<?xml version="1.0" encoding="UTF-8"?>
<svg version="1.1" xmlns="http://www.w3.org/2000/svg" width="700" height="603">
<path d="M0 0 C3.12578143 1.6720747 5.39281175 3.7856235 7 7 C7.101644 9.94728957 7.14104755 12.87116869 7.13701439 15.81888962 C7.13966622 16.74800525 7.14231804 17.67712089 7.14505023 18.63439155 C7.15277868 21.78302474 7.15330375 24.93161916 7.15390015 28.08026123 C7.15791243 30.34635216 7.16235026 32.61244236 7.1671797 34.87853169 C7.17917706 41.13329439 7.18480095 47.38804936 7.18936086 53.64282131 C7.19469525 59.686984 7.20467341 65.73113803 7.21437032 71.77529487 C7.24001668 87.97464274 7.25503864 104.17399536 7.26788078 120.37335771 C7.27213387 125.73752012 7.27669955 131.10168218 7.2814641 136.46584415 C7.30672183 164.97278476 7.32877524 193.47972593 7.34119225 221.98667526 C7.34411369 228.5933304 7.34708119 235.19998553 7.35009766 241.80664062 C7.35046857 242.62745378 7.35083947 243.44826693 7.35122162 244.29395321 C7.36338076 270.91467599 7.39433015 297.53533271 7.43601918 324.15602445 C7.47878151 351.51186625 7.50543001 378.86767316 7.51066696 406.22354929 C7.51140744 410.08520284 7.51231813 413.94685634 7.51332474 417.80850983 C7.51351535 418.56854505 7.51370597 419.32858028 7.51390236 420.11164687 C7.51741956 432.35629198 7.53773411 444.60085449 7.56412137 456.84546924 C7.59023308 469.14747123 7.59800741 481.44937755 7.58702008 493.7514033 C7.58156037 500.41941468 7.5848293 507.0872183 7.60948563 513.75520706 C7.63185189 519.85458409 7.63133665 525.95350685 7.61228175 532.05289117 C7.60946398 534.26423521 7.61517786 536.47560923 7.63009469 538.68690476 C7.6490853 541.68441127 7.63748963 544.68027865 7.61803246 547.67774582 C7.63088168 548.54380203 7.6437309 549.40985825 7.65696949 550.30215859 C7.59660868 554.51093555 7.27705248 557.18462726 4.58637297 560.52014089 C0.60479188 564.33774966 -2.09001068 564.39039791 -7.44921875 564.359375 C-11.55868504 563.78039966 -13.21349577 562.00085071 -16 559 C-17.6759059 555.6481882 -17.1420579 551.86727052 -17.13701439 548.18111038 C-17.13966622 547.25199475 -17.14231804 546.32287911 -17.14505023 545.36560845 C-17.15277868 542.21697526 -17.15330375 539.06838084 -17.15390015 535.91973877 C-17.15791243 533.65364784 -17.16235026 531.38755764 -17.1671797 529.12146831 C-17.17917706 522.86670561 -17.18480095 516.61195064 -17.18936086 510.35717869 C-17.19469525 504.313016 -17.20467341 498.26886197 -17.21437032 492.22470513 C-17.24001668 476.02535726 -17.25503864 459.82600464 -17.26788078 443.62664229 C-17.27213387 438.26247988 -17.27669955 432.89831782 -17.2814641 427.53415585 C-17.30672183 399.02721524 -17.32877524 370.52027407 -17.34119225 342.01332474 C-17.34411369 335.4066696 -17.34708119 328.80001447 -17.35009766 322.19335938 C-17.35046857 321.37254622 -17.35083947 320.55173307 -17.35122162 319.70604679 C-17.36338076 293.08532401 -17.39433015 266.46466729 -17.43601918 239.84397555 C-17.47878151 212.48813375 -17.50543001 185.13232684 -17.51066696 157.77645071 C-17.51140744 153.91479716 -17.51231813 150.05314366 -17.51332474 146.19149017 C-17.51351535 145.43145495 -17.51370597 144.67141972 -17.51390236 143.88835313 C-17.51741956 131.64370802 -17.53773411 119.39914551 -17.56412137 107.15453076 C-17.59023308 94.85252877 -17.59800741 82.55062245 -17.58702008 70.2485967 C-17.58156037 63.58058532 -17.5848293 56.9127817 -17.60948563 50.24479294 C-17.63185189 44.14541591 -17.63133665 38.04649315 -17.61228175 31.94710883 C-17.60946398 29.73576479 -17.61517786 27.52439077 -17.63009469 25.31309524 C-17.6490853 22.31558873 -17.63748963 19.31972135 -17.61803246 16.32225418 C-17.63088168 15.45619797 -17.6437309 14.59014175 -17.65696949 13.69784141 C-17.59660868 9.48906445 -17.27705248 6.81537274 -14.58637297 3.47985911 C-10.16327564 -0.76108307 -5.94721814 -0.83789291 0 0 Z " fill="#000000" transform="translate(355,18)"/>
</svg>
