<?xml version="1.0" encoding="UTF-8"?>
<svg version="1.1" xmlns="http://www.w3.org/2000/svg" width="447" height="492">
<path d="M0 0 C1.8125 1.125 1.8125 1.125 3 3 C3.7297425 6.40546499 3.35884947 8.36343225 1.65234375 11.390625 C0.15623484 13.64009372 -1.38384958 15.83551282 -3 18 C-0.74832154 19.71815438 -0.74832154 19.71815438 2 21 C5.17510813 19.85924259 7.14595863 18.04884746 9.4375 15.625 C10.04464844 15.00753906 10.65179688 14.39007813 11.27734375 13.75390625 C11.84582031 13.17511719 12.41429687 12.59632812 13 12 C16.06792507 9.00877305 17.35629161 8.09988578 21.625 7.4375 C25 8 25 8 26.9375 10.5 C27.288125 11.325 27.63875 12.15 28 13 C28.886875 12.484375 29.77375 11.96875 30.6875 11.4375 C34.2102641 9.90875332 35.47445321 9.62895402 39 11 C41 14 41 14 40.99609375 16.33203125 C39.59900565 20.07403585 37.01737186 22.15172351 34.0625 24.6875 C32.87076614 25.74556309 31.68068001 26.80548478 30.4921875 27.8671875 C29.90018555 28.39280273 29.30818359 28.91841797 28.69824219 29.45996094 C25.50340357 32.35717801 22.51671278 35.45946783 19.51171875 38.55078125 C17.51883077 40.49407948 15.50569016 42.29925623 13.39379883 44.10620117 C8.78730943 48.12466279 4.48501494 52.40585659 0.1875 56.75 C-0.62565674 57.56694336 -1.43881348 58.38388672 -2.27661133 59.22558594 C-4.85353297 61.81462671 -7.42717625 64.40688737 -10 67 C-13.39287153 70.41962719 -16.78914657 73.83582149 -20.1875 77.25 C-20.95231689 78.02311523 -21.71713379 78.79623047 -22.50512695 79.59277344 C-25.88458208 82.98742962 -29.28262623 86.29704482 -32.91577148 89.42016602 C-37.90201525 93.71526246 -42.51391177 98.37063986 -47.16015625 103.02734375 C-48.1182986 103.98481025 -49.07658916 104.94212845 -50.03501892 105.89930725 C-52.03091287 107.89373747 -54.02501452 109.88993741 -56.01782227 111.88745117 C-58.55141863 114.42674399 -61.08947983 116.96151903 -63.62891483 119.49497128 C-65.60490703 121.46732184 -67.57847679 123.44208263 -69.55135918 125.41754341 C-70.93410599 126.80126628 -72.3188393 128.18300314 -73.70362854 129.56468201 C-78.15371029 134.03117843 -82.47224964 138.54855108 -86.56568909 143.34550476 C-88.5554178 145.64068125 -90.69808646 147.75834704 -92.875 149.875 C-95.8276549 152.65392917 -95.8276549 152.65392917 -98 156 C-97.47535156 156.20496094 -96.95070313 156.40992188 -96.41015625 156.62109375 C-92.94228196 158.60514501 -90.30769839 161.30526461 -87.4375 164.0625 C-82.37194543 168.84857116 -77.21204619 173.40292567 -71.76953125 177.76171875 C-69.23242362 179.81215975 -66.74657328 181.90799523 -64.26953125 184.02978516 C-57.97943012 189.41409678 -51.53789527 194.56213272 -44.92578125 199.546875 C-42.75881022 201.1819931 -40.59846438 202.8257027 -38.4375 204.46875 C-16.73816086 220.91397535 5.70939743 236.22602567 28.80859375 250.640625 C29.69087646 251.19153809 30.57315918 251.74245117 31.48217773 252.31005859 C33.11445113 253.32459098 34.75047805 254.33311884 36.39086914 255.33447266 C37.10750732 255.77839355 37.82414551 256.22231445 38.5625 256.6796875 C39.18253906 257.05851074 39.80257813 257.43733398 40.44140625 257.82763672 C42 259 42 259 44 262 C43.8125 265.0625 43.8125 265.0625 43 268 C40 270 40 270 37.12084961 269.80004883 C33.95043375 268.98729339 31.81219055 267.95479237 29.06640625 266.19921875 C27.7215918 265.35133789 27.7215918 265.35133789 26.34960938 264.48632812 C25.42986328 263.89271484 24.51011719 263.29910156 23.5625 262.6875 C21.73111885 261.52371592 19.89910056 260.36093381 18.06640625 259.19921875 C17.20289551 258.64927246 16.33938477 258.09932617 15.44970703 257.53271484 C12.34873798 255.59252312 9.19517389 253.77997995 6 252 C6.42297363 252.3623877 6.84594727 252.72477539 7.28173828 253.09814453 C9.23165999 254.77125508 11.17833703 256.44809932 13.125 258.125 C14.12273437 258.97964844 14.12273437 258.97964844 15.140625 259.8515625 C26.81430575 269.92297334 26.81430575 269.92297334 27.625 274.625 C26.91424704 278.46306596 26.14947526 279.75037481 23 282 C22.01 282 21.02 282 20 282 C19.896875 282.515625 19.79375 283.03125 19.6875 283.5625 C17.29032258 292.06158358 17.29032258 292.06158358 13.9375 294.5 C11.02568301 296.75430992 10.83778462 299.51997159 10 303 C9 304 9 304 5.98828125 304.44921875 C0.65396566 304.35558665 -2.79787408 300.99937229 -6.8125 297.8125 C-8.48093524 296.53406501 -10.15022957 295.25675053 -11.8203125 293.98046875 C-13.09503418 292.99506104 -13.09503418 292.99506104 -14.39550781 291.98974609 C-18.59632606 288.78045956 -22.89110647 285.70446349 -27.1875 282.625 C-28.70197907 281.53407092 -30.21631708 280.44294596 -31.73046875 279.3515625 C-32.82021197 278.56756858 -33.91001346 277.7836556 -35 277 C-35 277.33 -35 277.66 -35 278 C-33.00776833 279.83567725 -30.99460965 281.61413592 -28.9375 283.375 C-28.31786377 283.91084717 -27.69822754 284.44669434 -27.05981445 284.9987793 C-23.73159329 287.83374551 -20.36039208 290.50581304 -16.765625 292.99609375 C-16.0837915 293.47062988 -15.40195801 293.94516602 -14.69946289 294.43408203 C-13.38343393 295.33570799 -12.05470305 296.21913599 -10.71264648 297.08154297 C-7.30232398 299.41710546 -6.09402589 300.64487433 -5.01953125 304.703125 C-5 308 -5 308 -6 309.9375 C-9.0921885 311.58022514 -11.5444731 311.28252736 -15 311 C-17.8515625 309.41796875 -17.8515625 309.41796875 -20.625 307.1875 C-21.65625 306.36765625 -22.6875 305.5478125 -23.75 304.703125 C-24.83592041 303.80520292 -25.91921335 302.9040948 -27 302 C-27.54527344 301.54560547 -28.09054687 301.09121094 -28.65234375 300.62304688 C-31.42368216 298.30490381 -34.17744416 295.96709615 -36.921875 293.6171875 C-40.32423688 290.71074183 -43.80416994 287.91024046 -47.3125 285.1328125 C-49.30103258 283.5547038 -51.27886598 281.96673303 -53.25 280.3671875 C-61.1609736 273.96368842 -69.2199789 267.79083045 -77.38208008 261.7109375 C-82.99784934 257.52164082 -88.54937857 253.26077843 -94.0625 248.9375 C-100.9019665 243.5788514 -107.8531432 238.39520884 -114.8684082 233.26953125 C-121.32577146 228.53595282 -127.65976958 223.65669644 -133.95117188 218.70507812 C-138.22334739 215.34865319 -142.55487167 212.12438994 -147 209 C-151.15230508 210.5902445 -153.67774079 213.63790378 -156.5625 216.875 C-157.08626221 217.45290283 -157.61002441 218.03080566 -158.1496582 218.6262207 C-159.23707553 219.82612384 -160.3222644 221.02805012 -161.40527344 222.23193359 C-163.36002828 224.39916179 -165.33504641 226.54712366 -167.31225586 228.69384766 C-171.8071322 233.57573181 -176.25526366 238.49872237 -180.6875 243.4375 C-183.74359461 246.82398321 -186.82985612 250.18244814 -189.91625977 253.54125977 C-192.77602204 256.65633125 -195.61515359 259.78851675 -198.4375 262.9375 C-202.43448378 267.3920991 -206.49074409 271.78918479 -210.55615234 276.18115234 C-214.3147798 280.24611811 -218.02749843 284.34984906 -221.72265625 288.47265625 C-224.76103303 291.84457696 -227.83070336 295.18746338 -230.90551758 298.52612305 C-233.89344443 301.77514616 -236.82845388 305.06590184 -239.75 308.375 C-249.926303 319.720573 -249.926303 319.720573 -256.4375 320.3125 C-260 320 -260 320 -262 318.375 C-263.43043197 314.97772407 -263.13446338 313.53685643 -262 310 C-258.82358128 304.27394752 -254.80924592 299.46923632 -250.22265625 294.82421875 C-249.61744141 293.92123047 -249.61744141 293.92123047 -249 293 C-249.38312959 290.9073548 -249.38312959 290.9073548 -250 289 C-260.92047389 300.59182263 -260.92047389 300.59182263 -271.62890625 312.37890625 C-274.71390567 315.78917744 -277.85636811 319.14383153 -281 322.5 C-286.85388564 328.75176026 -292.60878459 335.08334001 -298.31396484 341.47119141 C-299.68556425 343.0042692 -301.06121696 344.5336269 -302.4375 346.0625 C-303.26121094 346.98160156 -304.08492187 347.90070313 -304.93359375 348.84765625 C-307.63189466 351.65817383 -308.44701909 351.94879806 -312.375 352.3125 C-316 352 -316 352 -318.4375 350.4375 C-320.63284957 347.01275466 -320.47391304 345.02826081 -320 341 C-318.47558777 338.35356774 -316.5192999 336.22220824 -314.4375 334 C-313.61366821 333.08045532 -313.61366821 333.08045532 -312.77319336 332.14233398 C-309.46306731 328.47694157 -306.0302311 324.95306517 -302.46875 321.53125 C-299.96540801 318.92138282 -298.01699056 315.99492537 -296 313 C-296.639375 312.855625 -297.27875 312.71125 -297.9375 312.5625 C-300 312 -300 312 -301 311 C-301.57792289 305.22077107 -300.25202015 301.64791515 -297 297 C-294.55923127 294.10802348 -291.95189441 291.397915 -289.3125 288.6875 C-287.86249517 287.17392976 -286.41327015 285.65961206 -284.96484375 284.14453125 C-283.9281958 283.06486084 -283.9281958 283.06486084 -282.87060547 281.96337891 C-280.6582634 279.64131484 -278.50597045 277.27183821 -276.375 274.875 C-272.64652094 270.6893894 -268.83194074 266.59056896 -265 262.5 C-261.12827 258.36640398 -257.27343905 254.22399893 -253.5 250 C-249.12642707 245.1042094 -244.63978954 240.31837995 -240.15234375 235.52734375 C-236.8989652 232.04910967 -233.67311577 228.55199527 -230.5 225 C-226.7265588 220.77599866 -222.87166228 216.63366216 -219 212.5 C-214.37751839 207.56404679 -209.80451464 202.59222032 -205.296875 197.55078125 C-202.42946895 194.36640004 -199.53051129 191.21209865 -196.625 188.0625 C-196.11243652 187.5061084 -195.59987305 186.9497168 -195.07177734 186.37646484 C-193.13848213 184.28393443 -191.21738475 182.20591931 -189.1484375 180.24609375 C-187.77409818 179.03732164 -187.77409818 179.03732164 -188 177 C-191.26859002 177.58134873 -192.8912158 178.52155151 -195.20703125 180.87890625 C-195.79419922 181.47123047 -196.38136719 182.06355469 -196.98632812 182.67382812 C-197.58896484 183.29708984 -198.19160156 183.92035156 -198.8125 184.5625 C-199.69905273 185.45678711 -199.69905273 185.45678711 -200.60351562 186.36914062 C-203.60045754 189.41837378 -206.48119875 192.52967651 -209.26171875 195.77734375 C-214.33679196 201.63920598 -219.93956868 206.99671952 -225.45703125 212.43652344 C-230.64945523 217.5624676 -235.73879937 222.71391486 -240.484375 228.26171875 C-242.70421245 230.80766634 -245.08305254 233.13992189 -247.5 235.5 C-251.26492753 239.20856251 -254.82827053 243.01878602 -258.2578125 247.0390625 C-260.89771838 250.01043638 -263.74194023 252.76456888 -266.59375 255.53125 C-268.57943433 257.56851054 -270.44982852 259.63779355 -272.3125 261.78515625 C-275.92574742 265.95048149 -279.69676813 269.94622566 -283.5 273.9375 C-287.62875577 278.27715886 -291.56720213 282.558158 -295.0625 287.4375 C-297.20049322 290.3174703 -297.73742002 290.90405732 -301.25 292.1875 C-304 292 -304 292 -307 290 C-307.54062448 286.71620684 -307.72920315 284.25375549 -306.00830078 281.29492188 C-304.60158801 279.52779437 -303.11705751 277.88849942 -301.5625 276.25 C-300.45468587 275.02307663 -299.34792505 273.79520143 -298.2421875 272.56640625 C-297.69143555 271.9645752 -297.14068359 271.36274414 -296.57324219 270.74267578 C-294.36043715 268.2915581 -292.27023302 265.74947782 -290.1875 263.1875 C-289.11048828 261.86492187 -289.11048828 261.86492187 -288.01171875 260.515625 C-286.1429001 258.1786945 -284.31650617 255.81516941 -282.5 253.4375 C-278.59676734 248.38308351 -274.30745411 243.70967818 -270 239 C-268.60333132 237.43824665 -267.20750787 235.87573702 -265.8125 234.3125 C-261.39056905 229.39753145 -256.88180923 224.56655361 -252.36450195 219.73950195 C-248.56029945 215.67424172 -244.77147561 211.59563131 -241 207.5 C-236.68522261 202.81585862 -232.34859479 198.1527588 -228 193.5 C-215.24931007 179.97425532 -215.24931007 179.97425532 -203 166 C-206.68080918 162.27138811 -210.45760564 158.67278625 -214.3125 155.125 C-214.84294922 154.63386719 -215.37339844 154.14273438 -215.91992188 153.63671875 C-218.88918003 150.89860045 -221.89389507 148.20942475 -224.94140625 145.55859375 C-234.4698393 137.25216427 -243.60552029 128.47915498 -252.5625 119.5625 C-253.38258545 118.74930298 -253.38258545 118.74930298 -254.21923828 117.91967773 C-257.01079792 115.11745026 -259.67277287 112.25089128 -262.25 109.25 C-266.73513187 104.07160428 -271.58511585 99.26919168 -276.4375 94.4375 C-277.34048828 93.53064453 -278.24347656 92.62378906 -279.17382812 91.68945312 C-283.7414423 87.12845389 -288.35094976 82.68977575 -293.2734375 78.51220703 C-296.18572224 75.96148705 -299.0422889 73.368188 -301 70 C-300.90566038 64.90566038 -300.90566038 64.90566038 -299 63 C-296.09208677 62.39418474 -294.790691 62.19148205 -292 63 C-288.66908815 65.68737253 -285.89882834 68.86126862 -283 72 C-279.4735319 75.32054296 -275.9587295 78.38641312 -271.875 81 C-269.41167302 82.71361877 -268.13506672 83.91837847 -266.3125 86.1875 C-263.01759334 90.20796901 -259.15434586 93.27954028 -255.1015625 96.51171875 C-251.62077768 99.30423756 -248.21259585 102.17281547 -244.8125 105.0625 C-244.23556396 105.55202148 -243.65862793 106.04154297 -243.06420898 106.54589844 C-241.70878415 107.69645502 -240.35428608 108.84810325 -239 110 C-241.26723089 107.07087599 -243.46205929 104.42803815 -246.3125 102.0625 C-257.58589826 92.35881542 -268.17719567 81.9413149 -278.71911621 71.4571228 C-279.9815899 70.20210849 -281.24565002 68.94868785 -282.51135254 67.69692993 C-284.31762072 65.90871967 -286.11672425 64.11358692 -287.9140625 62.31640625 C-288.72271255 61.51846649 -288.72271255 61.51846649 -289.54769897 60.70440674 C-298.53976549 51.65913273 -298.53976549 51.65913273 -299.5625 45.75 C-299 43 -299 43 -297.3125 41.0625 C-295 40 -295 40 -292.5625 39.9375 C-288.85571127 41.47446118 -287.38377657 43.7989286 -285 47 C-284.443125 46.319375 -283.88625 45.63875 -283.3125 44.9375 C-281 43 -281 43 -278.5625 42.9375 C-275.24654051 44.31241003 -273.3768858 46.35147011 -271 49 C-269.77172126 43.4169148 -270.30816083 40.95298408 -273 36 C-273.40930954 33.066615 -273.43743629 31.70475847 -271.875 29.1875 C-270 28 -270 28 -267.1875 27.25 C-263.44283059 28.13109869 -263.31532922 28.56809166 -261.375 31.6875 C-260.88902344 32.50089844 -260.40304687 33.31429687 -259.90234375 34.15234375 C-257.54974646 37.67399349 -254.82987948 40.66722826 -251.9375 43.75 C-251.17735596 44.56343872 -251.17735596 44.56343872 -250.40185547 45.39331055 C-246.15408068 49.90043336 -241.88134327 54.33572337 -237.125 58.3125 C-234.42617885 60.64512423 -232.04090069 63.01768186 -229.75 65.75 C-225.46539552 70.79242568 -220.5462366 75.1179982 -215.63330078 79.52832031 C-212.82123964 82.0621177 -210.03729395 84.62653014 -207.25 87.1875 C-206.23449779 88.11862352 -205.21888447 89.04962588 -204.203125 89.98046875 C-203.47609375 90.64691406 -202.7490625 91.31335938 -202 92 C-203.63081725 87.74346441 -206.84564854 85.01754179 -210.0625 81.9375 C-242.40117654 50.22089199 -242.40117654 50.22089199 -244.33984375 35.40234375 C-243.94666883 32.62300378 -243.34850949 31.64582865 -241.375 29.6875 C-240.88773437 29.17574219 -240.40046875 28.66398437 -239.8984375 28.13671875 C-236.92778136 26.35799254 -235.41841515 26.33770778 -232 27 C-229.21904155 29.15271112 -226.99034745 31.72831645 -224.6875 34.375 C-224.02814453 35.10581787 -223.36878906 35.83663574 -222.68945312 36.58959961 C-220.77781418 38.7134605 -218.88734349 40.85455825 -217 43 C-215.33798406 44.85840051 -213.66864924 46.71004086 -212 48.5625 C-210.96552734 49.71878906 -210.96552734 49.71878906 -209.91015625 50.8984375 C-205.24893895 56.02672974 -200.28213132 60.66452274 -195.03515625 65.18359375 C-192.3167885 67.6097761 -189.78008332 70.19205656 -187.25 72.8125 C-185.30309774 74.70532164 -183.31553052 76.48689757 -181.265625 78.265625 C-176.985714 81.98332752 -172.86124826 85.8476692 -168.75 89.75 C-161.89266629 96.23346211 -154.98165583 102.65059432 -148 109 C-140.87439298 103.15360434 -134.51008012 96.5769716 -128.0456543 90.02514648 C-122.76208085 84.67658654 -117.47104439 79.41438535 -111.74975586 74.52709961 C-109.02860263 72.15221284 -106.51997203 69.58456476 -104 67 C-100.22541532 63.17901853 -96.40697238 59.51155152 -92.3125 56.03125 C-89.70320017 53.73929745 -87.18217137 51.36599689 -84.65649414 48.98266602 C-78.80631622 43.46326071 -72.9169039 38.09929332 -66.61328125 33.09375 C-64.78814684 31.63145995 -62.99589008 30.12759984 -61.23046875 28.59375 C-54.77687162 23.03372786 -48.29670373 17.63471009 -39.375 18.25 C-38.59125 18.4975 -37.8075 18.745 -37 19 C-35.75 21.625 -35.75 21.625 -35 25 C-38.12557971 30.89519062 -43.03548751 35.2961703 -47.75 39.9375 C-48.5234375 40.71029297 -49.296875 41.48308594 -50.09375 42.27929688 C-54.32494635 46.47854627 -58.65334912 50.49471036 -63.16894531 54.38500977 C-65.90746442 56.80038361 -68.45231882 59.38654988 -71 62 C-74.82718404 65.87980782 -78.72076623 69.5626513 -82.875 73.09375 C-85.69393932 75.62250439 -88.33938837 78.30646001 -91 81 C-94.82988013 84.87727963 -98.72051302 88.56243606 -102.875 92.09375 C-106.24700287 95.11863493 -109.38914781 98.36912789 -112.5715332 101.59106445 C-115.93601523 104.98111974 -119.40358382 108.17023234 -123.04296875 111.265625 C-126.87183718 114.65887367 -130.42126003 118.34670295 -134 122 C-128.95440051 117.73215484 -124.06348641 113.33980447 -119.25 108.8125 C-118.55261719 108.15830078 -117.85523438 107.50410156 -117.13671875 106.83007812 C-112.11691516 102.10147861 -107.23398712 97.26070147 -102.38671875 92.35546875 C-99.65845483 89.66292678 -96.80890617 87.16279366 -93.89453125 84.67578125 C-91.21538454 82.30597931 -88.73358347 79.75978288 -86.25 77.1875 C-84.29801266 75.28973453 -82.30483681 73.50268548 -80.25 71.71875 C-76.06455629 68.08361463 -72.02414745 64.31193655 -68 60.5 C-63.38140739 56.12496598 -58.71039288 51.84070607 -53.90625 47.66992188 C-51.05169318 45.16925991 -48.27578784 42.58736657 -45.5 40 C-42.08113094 36.82693836 -38.66154762 33.66735756 -35.125 30.625 C-19.67492539 18.2761251 -19.67492539 18.2761251 -7.95703125 2.8515625 C-6.18522105 -0.57634786 -3.54096677 -0.34546017 0 0 Z M-236 112 C-235.01 113.485 -235.01 113.485 -234 115 C-233.34 114.67 -232.68 114.34 -232 114 C-233.32 113.34 -234.64 112.68 -236 112 Z M-127 184 C-125.77766554 187.66700337 -124.44983091 188.49566262 -121.4375 190.875 C-119.94283203 192.06609375 -119.94283203 192.06609375 -118.41796875 193.28125 C-117.86931152 193.71566406 -117.3206543 194.15007812 -116.75537109 194.59765625 C-114.90136022 196.07880207 -113.06831681 197.58309644 -111.23828125 199.09375 C-102.38305592 206.38970232 -93.32435466 213.31486641 -84 220 C-83.34 219.67 -82.68 219.34 -82 219 C-89.97057154 212.05906156 -98.03516505 205.30213178 -106.38671875 198.82421875 C-108.99866166 196.79527943 -111.57807448 194.73070844 -114.14453125 192.64453125 C-114.82974854 192.08894531 -115.51496582 191.53335938 -116.22094727 190.9609375 C-117.5513495 189.88009574 -118.87877743 188.79558034 -120.20288086 187.70703125 C-123.21791542 184.93896552 -123.21791542 184.93896552 -127 184 Z M-82 220 C-81.01 221.485 -81.01 221.485 -80 223 C-79.34 222.67 -78.68 222.34 -78 222 C-79.32 221.34 -80.64 220.68 -82 220 Z M-41 273 C-40.67 273.66 -40.34 274.32 -40 275 C-39.34 274.67 -38.68 274.34 -38 274 C-38.99 273.67 -39.98 273.34 -41 273 Z " fill="#000000" transform="translate(372,102)"/>
</svg>
